<svg width="27" height="22" viewBox="0 0 27 22" fill="none" xmlns="http://www.w3.org/2000/svg">
<path d="M26.7371 2.66553C25.7465 3.10372 24.7008 3.37759 23.6 3.54191C24.7008 2.88462 25.5814 1.84391 25.9666 0.584104C24.9209 1.18662 23.7651 1.62481 22.4993 1.89869C21.5086 0.857975 20.0777 0.200684 18.5366 0.200684C15.5646 0.200684 13.143 2.61075 13.143 5.56856C13.143 6.00676 13.198 6.39018 13.3081 6.7736C8.85009 6.5545 4.83238 4.4183 2.13556 1.13185C1.69526 1.95346 1.42008 2.82985 1.42008 3.81579C1.42008 5.67811 2.35571 7.32134 3.84171 8.30727C2.96112 8.2525 2.13556 8.0334 1.36504 7.64998V7.70476C1.36504 10.3339 3.2363 12.5249 5.71297 13.0179C5.27268 13.1274 4.77734 13.1822 4.28201 13.1822C3.95179 13.1822 3.56653 13.1274 3.2363 13.0726C3.95179 15.2088 5.93312 16.7973 8.29972 16.7973C6.42846 18.2214 4.1169 19.0978 1.58519 19.0978C1.14489 19.0978 0.704596 19.0978 0.319336 19.043C2.74097 20.5767 5.54786 21.4531 8.62994 21.4531C18.5917 21.4531 24.0403 13.237 24.0403 6.1163C24.0403 5.89721 24.0403 5.62334 24.0403 5.40424C25.086 4.69217 26.0217 3.76101 26.7371 2.66553Z" fill="#52525B"/>
</svg>
