<svg width="25" height="24" viewBox="0 0 25 24" fill="none" xmlns="http://www.w3.org/2000/svg">
<path d="M12.711 2.13095C15.8837 2.13095 16.2594 2.14278 17.5128 2.19965C18.2664 2.20883 19.0128 2.34655 19.7196 2.60681C20.2322 2.80354 20.6977 3.10491 21.0861 3.49151C21.4746 3.87812 21.7774 4.34139 21.9751 4.85152C22.2366 5.55495 22.375 6.29781 22.3842 7.04779C22.4408 8.29516 22.4532 8.66909 22.4532 11.8267C22.4532 14.9842 22.4413 15.3582 22.3842 16.6055C22.375 17.3555 22.2366 18.0984 21.9751 18.8018C21.7774 19.3119 21.4746 19.7752 21.0861 20.1618C20.6977 20.5484 20.2322 20.8498 19.7196 21.0465C19.0128 21.3068 18.2664 21.4445 17.5128 21.4537C16.26 21.51 15.8843 21.5224 12.711 21.5224C9.53769 21.5224 9.16196 21.5105 7.90917 21.4537C7.15559 21.4445 6.40917 21.3068 5.70236 21.0465C5.18979 20.8498 4.72429 20.5484 4.33583 20.1618C3.94737 19.7752 3.64455 19.3119 3.44688 18.8018C3.18537 18.0984 3.04699 17.3555 3.03777 16.6055C2.98118 15.3582 2.96874 14.9842 2.96874 11.8267C2.96874 8.66909 2.98062 8.29516 3.03777 7.04779C3.04699 6.29781 3.18537 5.55495 3.44688 4.85152C3.64455 4.34139 3.94737 3.87812 4.33583 3.49151C4.72429 3.10491 5.18979 2.80354 5.70236 2.60681C6.40917 2.34655 7.15559 2.20883 7.90917 2.19965C9.16253 2.14334 9.53825 2.13095 12.711 2.13095ZM12.711 0C9.48563 0 9.07935 0.0135155 7.81185 0.0709565C6.8256 0.0904797 5.84982 0.276326 4.92601 0.620589C4.13354 0.917742 3.41575 1.38341 2.82275 1.98509C2.21763 2.57548 1.74933 3.29024 1.45056 4.07944C1.10464 4.99883 0.917907 5.96995 0.89829 6.95149C0.841705 8.21182 0.828125 8.61616 0.828125 11.8261C0.828125 15.036 0.841705 15.4404 0.899422 16.7018C0.919039 17.6834 1.10578 18.6545 1.45169 19.5739C1.75013 20.363 2.21803 21.0777 2.82275 21.6682C3.41608 22.2701 4.13426 22.7357 4.92714 23.0327C5.85095 23.377 6.82673 23.5628 7.81298 23.5824C9.08048 23.6387 9.48506 23.6533 12.7121 23.6533C15.9391 23.6533 16.3437 23.6398 17.6112 23.5824C18.5975 23.5628 19.5733 23.377 20.4971 23.0327C21.2862 22.7283 22.0028 22.2633 22.601 21.6676C23.1993 21.0718 23.666 20.3583 23.9714 19.5728C24.3173 18.6534 24.504 17.6822 24.5237 16.7007C24.5802 15.4404 24.5938 15.036 24.5938 11.8261C24.5938 8.61616 24.5802 8.21182 24.5225 6.95037C24.5029 5.96883 24.3162 4.99771 23.9703 4.07831C23.6718 3.28922 23.2039 2.57447 22.5992 1.98397C22.0059 1.38214 21.2877 0.916471 20.4948 0.619462C19.571 0.275199 18.5952 0.0893535 17.609 0.0698303C16.3426 0.0135156 15.9363 0 12.711 0Z" fill="#52525B"/>
<path d="M12.7086 5.75342C11.5017 5.75342 10.3219 6.10959 9.31841 6.7769C8.31492 7.44421 7.5328 8.39268 7.07095 9.50237C6.60909 10.6121 6.48825 11.8331 6.7237 13.0112C6.95915 14.1892 7.54032 15.2713 8.39372 16.1206C9.24712 16.97 10.3344 17.5484 11.5181 17.7827C12.7018 18.017 13.9287 17.8968 15.0438 17.4371C16.1588 16.9775 17.1118 16.1991 17.7823 15.2004C18.4528 14.2017 18.8107 13.0275 18.8107 11.8264C18.8107 10.2157 18.1678 8.67106 17.0234 7.53215C15.8791 6.39325 14.327 5.75342 12.7086 5.75342ZM12.7086 15.7684C11.9252 15.7684 11.1594 15.5372 10.508 15.1041C9.85661 14.6709 9.34893 14.0553 9.04913 13.335C8.74934 12.6146 8.6709 11.822 8.82373 11.0573C8.97657 10.2927 9.35381 9.59027 9.90776 9.03896C10.4617 8.48766 11.1675 8.11222 11.9358 7.96011C12.7042 7.80801 13.5006 7.88607 14.2244 8.18444C14.9481 8.4828 15.5667 8.98806 16.002 9.63632C16.4372 10.2846 16.6695 11.0467 16.6695 11.8264C16.6695 12.8719 16.2522 13.8746 15.5094 14.6138C14.7666 15.3531 13.7591 15.7684 12.7086 15.7684Z" fill="#52525B"/>
<path d="M19.0529 6.9325C19.8404 6.9325 20.4788 6.29713 20.4788 5.51337C20.4788 4.72961 19.8404 4.09424 19.0529 4.09424C18.2654 4.09424 17.627 4.72961 17.627 5.51337C17.627 6.29713 18.2654 6.9325 19.0529 6.9325Z" fill="#52525B"/>
</svg>
