<svg width="24" height="23" viewBox="0 0 24 23" fill="none" xmlns="http://www.w3.org/2000/svg">
<path fill-rule="evenodd" clip-rule="evenodd" d="M11.9604 0.789062C5.66136 0.789062 0.59375 5.83247 0.59375 12.1014C0.59375 17.0977 3.86165 21.3398 8.36093 22.8481C8.92927 22.9424 9.11871 22.6124 9.11871 22.2825C9.11871 21.9997 9.11871 21.2927 9.11871 20.35C5.94553 21.057 5.28248 18.8417 5.28248 18.8417C4.76151 17.5219 4.00373 17.1919 4.00373 17.1919C2.96179 16.4849 4.09846 16.4849 4.09846 16.4849C5.23512 16.5792 5.85081 17.6633 5.85081 17.6633C6.84539 19.4073 8.50302 18.8888 9.16607 18.606C9.26079 17.8518 9.54496 17.3805 9.87648 17.0977C7.36636 16.8149 4.71415 15.825 4.71415 11.4886C4.71415 10.2631 5.14039 9.22617 5.89817 8.47202C5.80345 8.18921 5.3772 7.05798 5.99289 5.4554C5.99289 5.4554 6.94011 5.17259 9.11871 6.63376C10.0186 6.39809 11.0131 6.25669 11.9604 6.25669C12.9076 6.25669 13.9022 6.39809 14.802 6.63376C16.9806 5.17259 17.9278 5.4554 17.9278 5.4554C18.5435 7.01084 18.1646 8.14207 18.0226 8.47202C18.733 9.27331 19.2066 10.2631 19.2066 11.4886C19.2066 15.825 16.5544 16.7677 13.9969 17.0505C14.4231 17.3805 14.7547 18.0875 14.7547 19.1245C14.7547 20.6328 14.7547 21.8583 14.7547 22.2353C14.7547 22.5182 14.9441 22.8952 15.5598 22.801C20.0591 21.3398 23.327 17.0977 23.327 12.1014C23.327 5.83247 18.2594 0.789062 11.9604 0.789062Z" fill="#52525B"/>
</svg>
