<svg width="50" height="51" viewBox="0 0 50 51" fill="none" xmlns="http://www.w3.org/2000/svg">
<path d="M25.0003 31.3735C21.167 31.3735 20.8337 29.5819 20.8337 29.2902H16.667C16.667 31.2069 18.042 34.6027 22.917 35.3735V37.6235H27.0837V35.3735C31.2503 34.6652 33.3337 31.9777 33.3337 29.2902C33.3337 26.9569 32.2503 23.0402 25.0003 23.0402C20.8337 23.0402 20.8337 21.7277 20.8337 20.9569C20.8337 20.186 22.292 18.8735 25.0003 18.8735C27.7087 18.8735 27.8962 20.2069 27.917 20.9569H32.0837C32.0555 19.5376 31.545 18.1702 30.6363 17.0797C29.7275 15.9892 28.4746 15.2405 27.0837 14.9569V12.6235H22.917V14.8944C18.7503 15.5819 16.667 18.2694 16.667 20.9569C16.667 23.2902 17.7503 27.2069 25.0003 27.2069C29.167 27.2069 29.167 28.6235 29.167 29.2902C29.167 29.9569 27.8753 31.3735 25.0003 31.3735Z" fill="white"/>
<path d="M10.417 4.29028H4.16699V8.45695H8.33366V43.8736C8.33366 44.4262 8.55315 44.9561 8.94385 45.3468C9.33455 45.7375 9.86446 45.957 10.417 45.957H39.5837C40.1362 45.957 40.6661 45.7375 41.0568 45.3468C41.4475 44.9561 41.667 44.4262 41.667 43.8736V8.45695H45.8337V4.29028H10.417ZM37.5003 41.7903H12.5003V8.45695H37.5003V41.7903Z" fill="white"/>
</svg>
