<svg width="45" height="45" viewBox="0 0 45 45" fill="none" xmlns="http://www.w3.org/2000/svg">
<path d="M24.6049 22.0619L32.4882 14.1969C32.8335 13.8517 33.0274 13.3835 33.0274 12.8953C33.0274 12.4071 32.8335 11.9388 32.4882 11.5936C32.143 11.2484 31.6748 11.0544 31.1866 11.0544C30.6984 11.0544 30.2301 11.2484 29.8849 11.5936L22.0199 19.4769L14.1549 11.5936C13.8097 11.2484 13.3415 11.0544 12.8532 11.0544C12.365 11.0544 11.8968 11.2484 11.5516 11.5936C11.2064 11.9388 11.0124 12.4071 11.0124 12.8953C11.0124 13.3835 11.2064 13.8517 11.5516 14.1969L19.4349 22.0619L11.5516 29.9269C11.3797 30.0974 11.2433 30.3001 11.1503 30.5236C11.0572 30.747 11.0093 30.9866 11.0093 31.2286C11.0093 31.4706 11.0572 31.7103 11.1503 31.9337C11.2433 32.1571 11.3797 32.3598 11.5516 32.5303C11.722 32.7021 11.9248 32.8385 12.1482 32.9316C12.3716 33.0247 12.6112 33.0726 12.8532 33.0726C13.0953 33.0726 13.3349 33.0247 13.5583 32.9316C13.7817 32.8385 13.9845 32.7021 14.1549 32.5303L22.0199 24.6469L29.8849 32.5303C30.0553 32.7021 30.2581 32.8385 30.4815 32.9316C30.7049 33.0247 30.9445 33.0726 31.1866 33.0726C31.4286 33.0726 31.6682 33.0247 31.8916 32.9316C32.115 32.8385 32.3178 32.7021 32.4882 32.5303C32.6601 32.3598 32.7965 32.1571 32.8895 31.9337C32.9826 31.7103 33.0305 31.4706 33.0305 31.2286C33.0305 30.9866 32.9826 30.747 32.8895 30.5236C32.7965 30.3001 32.6601 30.0974 32.4882 29.9269L24.6049 22.0619Z" fill="black"/>
</svg>
