<svg width="46" height="46" viewBox="0 0 46 46" fill="none" xmlns="http://www.w3.org/2000/svg">
<path d="M23.0182 4.24805C24.5611 4.24791 26.0452 4.83948 27.1649 5.9009C28.2847 6.96232 28.9547 8.41275 29.037 9.9534L29.045 10.2748H37.8843C38.1897 10.2749 38.4836 10.3909 38.7068 10.5994C38.9299 10.8079 39.0656 11.0933 39.0865 11.398C39.1073 11.7027 39.0117 12.0039 38.8189 12.2408C38.6262 12.4778 38.3507 12.6327 38.0482 12.6743L37.8843 12.6855H36.1823L34.2216 36.8779C34.0993 38.3871 33.4133 39.795 32.3001 40.8215C31.187 41.8479 29.7283 42.4178 28.2141 42.4177H17.8223C16.3081 42.4178 14.8494 41.8479 13.7363 40.8215C12.6231 39.795 11.9372 38.3871 11.8148 36.8779L9.85249 12.6855H8.15213C7.86086 12.6855 7.57944 12.58 7.35992 12.3886C7.14041 12.1971 6.99764 11.9327 6.95803 11.6441L6.94678 11.4802C6.94679 11.1889 7.05227 10.9075 7.24372 10.688C7.43517 10.4685 7.69964 10.3257 7.98821 10.2861L8.15213 10.2748H16.9914C16.9914 8.67643 17.6264 7.14349 18.7566 6.01325C19.8869 4.88301 21.4198 4.24805 23.0182 4.24805ZM33.7652 12.6855H12.2712L14.2175 36.6834C14.291 37.5889 14.7026 38.4336 15.3706 39.0495C16.0385 39.6653 16.9138 40.0071 17.8223 40.007H28.2141C29.1226 40.0071 29.9979 39.6653 30.6658 39.0495C31.3338 38.4336 31.7454 37.5889 31.8189 36.6834L33.7636 12.6855H33.7652ZM19.4021 18.7123C19.6934 18.7123 19.9748 18.8178 20.1943 19.0093C20.4139 19.2007 20.5566 19.4652 20.5962 19.7538L20.6075 19.9177V32.7748C20.6074 33.0802 20.4914 33.3742 20.2829 33.5974C20.0744 33.8205 19.789 33.9562 19.4843 33.977C19.1796 33.9978 18.8784 33.9022 18.6415 33.7095C18.4046 33.5168 18.2497 33.2413 18.208 32.9388L18.1968 32.7748V19.9177C18.1968 19.598 18.3238 19.2914 18.5498 19.0654C18.7759 18.8393 19.0825 18.7123 19.4021 18.7123ZM26.6343 18.7123C26.9256 18.7123 27.207 18.8178 27.4265 19.0093C27.646 19.2007 27.7888 19.4652 27.8284 19.7538L27.8396 19.9177V32.7748C27.8395 33.0802 27.7235 33.3742 27.515 33.5974C27.3065 33.8205 27.0211 33.9562 26.7164 33.977C26.4117 33.9978 26.1105 33.9022 25.8736 33.7095C25.6367 33.5168 25.4818 33.2413 25.4402 32.9388L25.4289 32.7748V19.9177C25.4289 19.598 25.5559 19.2914 25.782 19.0654C26.008 18.8393 26.3146 18.7123 26.6343 18.7123ZM23.0182 6.65876C22.1019 6.65865 21.2198 7.00638 20.55 7.63168C19.8803 8.25697 19.4729 9.11321 19.4102 10.0273L19.4021 10.2748H26.6343L26.6262 10.0273C26.5635 9.11321 26.1561 8.25697 25.4864 7.63168C24.8166 7.00638 23.9345 6.65865 23.0182 6.65876Z" fill="#DCDCDC"/>
</svg>
