<svg width="21" height="22" viewBox="0 0 21 22" fill="none" xmlns="http://www.w3.org/2000/svg">
<path d="M5.25 15.1188C5.44425 17.3068 7.23581 18.8594 9.96319 19.0603V20.6562H11.3321V19.0603C14.3115 18.8253 16.1595 17.1729 16.1595 14.729C16.1595 12.6421 14.9166 11.4346 12.2797 10.7548L11.3321 10.5093V5.51919C12.8047 5.66356 13.7983 6.45631 14.049 7.64019H15.9784C15.7605 5.54019 13.9571 4.03344 11.3321 3.86675V2.28125H9.96319V3.89956C7.41825 4.20144 5.67131 5.83156 5.67131 8.04181C5.67131 9.95019 6.93919 11.3007 9.16387 11.8704L9.9645 12.083V17.3737C8.45644 17.1506 7.41825 16.3237 7.16756 15.1188H5.25ZM9.70069 10.0841C8.33175 9.73888 7.60069 9.00125 7.60069 7.96306C7.60069 6.72406 8.52469 5.80925 9.96319 5.56381V10.151L9.70069 10.0854V10.0841ZM11.7889 12.5411C13.4781 12.965 14.2196 13.6685 14.2196 14.8629C14.2196 16.3027 13.1355 17.2621 11.3321 17.4078V12.4269L11.7889 12.5398V12.5411Z" fill="black"/>
</svg>
