<svg width="46" height="46" viewBox="0 0 46 46" fill="none" xmlns="http://www.w3.org/2000/svg">
<g clip-path="url(#clip0_117_2853)">
<path d="M27.9406 39.1704H24.6843V28.5225C24.6843 28.3291 24.5261 28.1709 24.3327 28.1709H21.696C21.5027 28.1709 21.3445 28.3291 21.3445 28.5225V39.1704H18.0969C17.8025 39.1704 17.6399 39.5088 17.82 39.7373L22.7419 45.9644C22.7748 46.0064 22.8168 46.0404 22.8648 46.0637C22.9128 46.0871 22.9654 46.0992 23.0188 46.0992C23.0721 46.0992 23.1248 46.0871 23.1728 46.0637C23.2207 46.0404 23.2627 46.0064 23.2956 45.9644L28.2175 39.7373C28.3977 39.5088 28.2351 39.1704 27.9406 39.1704Z" fill="#DCDCDC"/>
<path d="M36.1753 16.7466C34.1626 11.438 29.0342 7.66309 23.0269 7.66309C17.0195 7.66309 11.8911 11.4336 9.87842 16.7422C6.1123 17.731 3.33057 21.1631 3.33057 25.2412C3.33057 30.0972 7.26367 34.0303 12.1152 34.0303H13.8774C14.0708 34.0303 14.229 33.8721 14.229 33.6787V31.042C14.229 30.8486 14.0708 30.6904 13.8774 30.6904H12.1152C10.6343 30.6904 9.24121 30.1016 8.2041 29.0337C7.17139 27.9702 6.62207 26.5376 6.67041 25.0522C6.70996 23.8921 7.10547 22.8022 7.82178 21.8838C8.55566 20.9478 9.58398 20.2666 10.7266 19.9634L12.3921 19.5283L13.0029 17.9199C13.3809 16.918 13.9082 15.9819 14.5718 15.1338C15.2269 14.2931 16.0029 13.5542 16.8745 12.9409C18.6807 11.6709 20.8076 10.9985 23.0269 10.9985C25.2461 10.9985 27.373 11.6709 29.1792 12.9409C30.0537 13.5562 30.8271 14.2944 31.4819 15.1338C32.1455 15.9819 32.6729 16.9224 33.0508 17.9199L33.6572 19.5239L35.3184 19.9634C37.7002 20.605 39.3657 22.7715 39.3657 25.2412C39.3657 26.6958 38.7988 28.0669 37.7705 29.0952C37.2662 29.6025 36.6663 30.0046 36.0055 30.2785C35.3447 30.5523 34.6362 30.6923 33.9209 30.6904H32.1587C31.9653 30.6904 31.8071 30.8486 31.8071 31.042V33.6787C31.8071 33.8721 31.9653 34.0303 32.1587 34.0303H33.9209C38.7725 34.0303 42.7056 30.0972 42.7056 25.2412C42.7056 21.1675 39.9326 17.7397 36.1753 16.7466Z" fill="#DCDCDC"/>
</g>
<defs>
<clipPath id="clip0_117_2853">
<rect width="45" height="45" fill="white" transform="translate(0.518066 0.631836)"/>
</clipPath>
</defs>
</svg>
