<svg width="58" height="57" viewBox="0 0 58 57" fill="none" xmlns="http://www.w3.org/2000/svg">
<path d="M28.9987 0.242188L33.221 5.67743L39.1215 2.13446L41.0952 8.72792L47.8772 7.55573L47.3357 14.4169L54.0832 15.7738L51.0997 21.9761L56.9014 25.6788L51.8789 30.3845L55.9512 35.933L49.568 38.5066L51.3609 45.1515L44.479 45.2454L43.7505 52.0893L37.2994 49.6909L34.1478 55.8094L28.9987 51.2425L23.8497 55.8094L20.6981 49.6909L14.247 52.0893L13.5184 45.2454L6.63656 45.1515L8.42951 38.5066L2.04629 35.933L6.11857 30.3845L1.0961 25.6788L6.89773 21.9761L3.91431 15.7738L10.6618 14.4169L10.1203 7.55573L16.9023 8.72792L18.876 2.13446L24.7765 5.67743L28.9987 0.242188Z" fill="#FFCC00"/>
<path d="M25.6886 35.1961L18.1558 27.6705C18.0375 27.5323 17.9757 27.3546 17.9827 27.1729C17.9897 26.9911 18.0651 26.8187 18.1937 26.69C18.3223 26.5614 18.4948 26.4861 18.6765 26.479C18.8583 26.472 19.036 26.5339 19.1742 26.6522L25.6742 33.1522L38.3781 20.4627C38.5162 20.3444 38.6939 20.2826 38.8757 20.2896C39.0575 20.2966 39.2299 20.372 39.3585 20.5006C39.4872 20.6292 39.5625 20.8016 39.5695 20.9834C39.5765 21.1652 39.5147 21.3429 39.3964 21.4811L25.6886 35.1961Z" fill="black"/>
</svg>
