<svg width="26" height="27" viewBox="0 0 26 27" fill="none" xmlns="http://www.w3.org/2000/svg">
<path d="M1.8457 4.81348C1.8457 4.16701 2.09263 3.54702 2.53217 3.0899C2.97171 2.63278 3.56785 2.37598 4.18945 2.37598H8.87695C9.49855 2.37598 10.0947 2.63278 10.5342 3.0899C10.9738 3.54702 11.2207 4.16701 11.2207 4.81348V9.68848C11.2207 10.3349 10.9738 10.9549 10.5342 11.412C10.0947 11.8692 9.49855 12.126 8.87695 12.126H4.18945C3.56785 12.126 2.97171 11.8692 2.53217 11.412C2.09263 10.9549 1.8457 10.3349 1.8457 9.68848V4.81348ZM14.3457 4.81348C14.3457 4.16701 14.5926 3.54702 15.0322 3.0899C15.4717 2.63278 16.0679 2.37598 16.6895 2.37598H21.377C21.9986 2.37598 22.5947 2.63278 23.0342 3.0899C23.4738 3.54702 23.7207 4.16701 23.7207 4.81348V9.68848C23.7207 10.3349 23.4738 10.9549 23.0342 11.412C22.5947 11.8692 21.9986 12.126 21.377 12.126H16.6895C16.0679 12.126 15.4717 11.8692 15.0322 11.412C14.5926 10.9549 14.3457 10.3349 14.3457 9.68848V4.81348ZM1.8457 17.8135C1.8457 17.167 2.09263 16.547 2.53217 16.0899C2.97171 15.6328 3.56785 15.376 4.18945 15.376H8.87695C9.49855 15.376 10.0947 15.6328 10.5342 16.0899C10.9738 16.547 11.2207 17.167 11.2207 17.8135V22.6885C11.2207 23.3349 10.9738 23.9549 10.5342 24.4121C10.0947 24.8692 9.49855 25.126 8.87695 25.126H4.18945C3.56785 25.126 2.97171 24.8692 2.53217 24.4121C2.09263 23.9549 1.8457 23.3349 1.8457 22.6885V17.8135ZM14.3457 17.8135C14.3457 17.167 14.5926 16.547 15.0322 16.0899C15.4717 15.6328 16.0679 15.376 16.6895 15.376H21.377C21.9986 15.376 22.5947 15.6328 23.0342 16.0899C23.4738 16.547 23.7207 17.167 23.7207 17.8135V22.6885C23.7207 23.3349 23.4738 23.9549 23.0342 24.4121C22.5947 24.8692 21.9986 25.126 21.377 25.126H16.6895C16.0679 25.126 15.4717 24.8692 15.0322 24.4121C14.5926 23.9549 14.3457 23.3349 14.3457 22.6885V17.8135Z" fill="black"/>
</svg>
