<svg width="399" height="134" viewBox="0 0 399 134" fill="none" xmlns="http://www.w3.org/2000/svg">
<path d="M392.662 45.7592C393.319 51.763 388.785 58.2075 379.601 64.7314C370.457 71.2272 356.869 77.6799 339.823 83.7225C305.738 95.8048 257.937 106.21 204.502 112.064C151.066 117.918 102.146 118.109 66.2542 113.693C48.3043 111.485 33.6412 108.127 23.3072 103.766C12.9287 99.3848 7.10674 94.0748 6.44899 88.0711C5.79124 82.0673 10.3254 75.6227 19.5093 69.0988C28.6537 62.603 42.242 56.1503 59.288 50.1078C93.3724 38.0255 141.174 27.6203 194.609 21.7661C248.044 15.912 296.965 15.7207 332.856 20.1368C350.806 22.3453 365.47 25.7028 375.803 30.0647C386.182 34.4454 392.004 39.7554 392.662 45.7592Z" stroke="black"/>
<path d="M393.817 66.9152C393.817 72.9549 388.608 78.8674 378.768 84.3523C368.97 89.8136 354.76 94.7481 337.157 98.8983C301.96 107.197 253.31 112.334 199.555 112.334C145.8 112.334 97.1495 107.197 61.9521 98.8983C44.3494 94.7481 30.1392 89.8136 20.3418 84.3523C10.502 78.8674 5.29297 72.9549 5.29297 66.9152C5.29297 60.8755 10.502 54.9631 20.3418 49.4782C30.1392 44.0168 44.3494 39.0823 61.9521 34.9322C97.1495 26.6336 145.8 21.4961 199.555 21.4961C253.31 21.4961 301.96 26.6336 337.157 34.9322C354.76 39.0823 368.97 44.0168 378.768 49.4782C388.608 54.9631 393.817 60.8755 393.817 66.9152Z" stroke="black"/>
</svg>
