<svg width="77" height="77" viewBox="0 0 77 77" fill="none" xmlns="http://www.w3.org/2000/svg">
<path d="M38.7875 0.59375L42.2952 15.2812L49.9762 2.28018L48.9988 17.349L60.1707 7.18961L54.7952 21.3009L68.4653 14.8858L59.1692 26.7857L74.1228 24.685L61.7322 33.3161L76.6407 35.7164L62.2565 40.3119L75.7951 46.9998L60.6954 47.1513L71.6612 57.5328L57.1877 53.2268L64.6064 66.3793L52.0451 57.9985L55.2574 72.7533L45.7245 61.0423L44.445 76.0885L38.7875 62.0879L33.1299 76.0885L31.8505 61.0423L22.3175 72.7533L25.5299 57.9985L12.9686 66.3793L20.3872 53.2268L5.91371 57.5328L16.8795 47.1513L1.77985 46.9998L15.3185 40.3119L0.934265 35.7164L15.8427 33.3161L3.45211 24.685L18.4057 26.7857L9.10966 14.8858L22.7797 21.3009L17.4042 7.18961L28.5761 17.349L27.5988 2.28018L35.2798 15.2812L38.7875 0.59375Z" fill="#FFCC00"/>
<path d="M44.0718 39.3076L45.7554 42.569L49.3565 43.0824L46.7142 45.4734L47.8466 49.1221L44.0718 47.0142L40.297 49.1221L41.4295 45.4734L38.7871 43.0824L42.4864 42.569L44.0718 39.3076Z" fill="black"/>
<path d="M45.5836 30.2483H43.3187V29.4933C43.3175 29.0932 43.158 28.7099 42.8751 28.427C42.5922 28.1441 42.2088 27.9846 41.8088 27.9834H35.7691C35.369 27.9846 34.9856 28.1441 34.7027 28.427C34.4198 28.7099 34.2604 29.0932 34.2592 29.4933V30.2483H31.9943C31.5942 30.2495 31.2108 30.4089 30.9279 30.6918C30.645 30.9747 30.4856 31.3581 30.4844 31.7582V47.6123C30.4856 48.0124 30.645 48.3958 30.9279 48.6787C31.2108 48.9616 31.5942 49.1211 31.9943 49.1223H37.279V47.6123H31.9943V31.7582H34.2592V34.0231H43.3187V31.7582H45.5836V37.0429H47.0935V31.7582C47.0923 31.3581 46.9328 30.9747 46.6499 30.6918C46.367 30.4089 45.9836 30.2495 45.5836 30.2483ZM41.8088 32.5132H35.7691V29.4933H41.8088V32.5132Z" fill="black"/>
</svg>
