<svg width="212" height="119" viewBox="0 0 212 119" fill="none" xmlns="http://www.w3.org/2000/svg">
<circle cx="4.66161" cy="4.20653" r="3.70653" stroke="#2F2E40"/>
<circle cx="4.66161" cy="22.6196" r="3.70653" stroke="#2F2E40"/>
<circle cx="4.66161" cy="41.0327" r="3.70653" stroke="#2F2E40"/>
<circle cx="4.66161" cy="59.4458" r="3.70653" stroke="#2F2E40"/>
<circle cx="4.66161" cy="77.8589" r="3.70653" stroke="#2F2E40"/>
<circle cx="4.66161" cy="96.272" r="3.70653" stroke="#2F2E40"/>
<circle cx="4.66161" cy="114.685" r="3.70653" stroke="#2F2E40"/>
<circle cx="23.0737" cy="4.20653" r="3.70653" stroke="#2F2E40"/>
<circle cx="23.0737" cy="22.6196" r="3.70653" stroke="#2F2E40"/>
<circle cx="23.0737" cy="41.0327" r="3.70653" stroke="#2F2E40"/>
<circle cx="23.0737" cy="59.4458" r="3.70653" stroke="#2F2E40"/>
<circle cx="23.0737" cy="77.8589" r="3.70653" stroke="#2F2E40"/>
<circle cx="23.0737" cy="96.272" r="3.70653" stroke="#2F2E40"/>
<circle cx="23.0737" cy="114.685" r="3.70653" stroke="#2F2E40"/>
<circle cx="41.4858" cy="4.20653" r="3.70653" stroke="#2F2E40"/>
<circle cx="41.4858" cy="22.6196" r="3.70653" stroke="#2F2E40"/>
<circle cx="41.4858" cy="41.0327" r="3.70653" stroke="#2F2E40"/>
<circle cx="41.4858" cy="59.4458" r="3.70653" stroke="#2F2E40"/>
<circle cx="41.4858" cy="77.8589" r="3.70653" stroke="#2F2E40"/>
<circle cx="41.4858" cy="96.272" r="3.70653" stroke="#2F2E40"/>
<circle cx="41.4858" cy="114.685" r="3.70653" stroke="#2F2E40"/>
<circle cx="59.8979" cy="4.20653" r="3.70653" stroke="#2F2E40"/>
<circle cx="59.8979" cy="22.6196" r="3.70653" stroke="#2F2E40"/>
<circle cx="59.8979" cy="41.0327" r="3.70653" stroke="#2F2E40"/>
<circle cx="59.8979" cy="59.4458" r="3.70653" stroke="#2F2E40"/>
<circle cx="59.8979" cy="77.8589" r="3.70653" stroke="#2F2E40"/>
<circle cx="59.8979" cy="96.272" r="3.70653" stroke="#2F2E40"/>
<circle cx="59.8979" cy="114.685" r="3.70653" stroke="#2F2E40"/>
<circle cx="78.3101" cy="4.20653" r="3.70653" stroke="#2F2E40"/>
<circle cx="78.3101" cy="22.6196" r="3.70653" stroke="#2F2E40"/>
<circle cx="78.3101" cy="41.0327" r="3.70653" stroke="#2F2E40"/>
<circle cx="78.3101" cy="59.4458" r="3.70653" stroke="#2F2E40"/>
<circle cx="78.3101" cy="77.8589" r="3.70653" stroke="#2F2E40"/>
<circle cx="78.3101" cy="96.272" r="3.70653" stroke="#2F2E40"/>
<circle cx="78.3101" cy="114.685" r="3.70653" stroke="#2F2E40"/>
<circle cx="96.7222" cy="4.20653" r="3.70653" stroke="#2F2E40"/>
<circle cx="96.7222" cy="22.6196" r="3.70653" stroke="#2F2E40"/>
<circle cx="96.7222" cy="41.0327" r="3.70653" stroke="#2F2E40"/>
<circle cx="96.7222" cy="59.4458" r="3.70653" stroke="#2F2E40"/>
<circle cx="96.7222" cy="77.8589" r="3.70653" stroke="#2F2E40"/>
<circle cx="96.7222" cy="96.272" r="3.70653" stroke="#2F2E40"/>
<circle cx="96.7222" cy="114.685" r="3.70653" stroke="#2F2E40"/>
<circle cx="115.134" cy="4.20653" r="3.70653" stroke="#2F2E40"/>
<circle cx="115.134" cy="22.6196" r="3.70653" stroke="#2F2E40"/>
<circle cx="115.134" cy="41.0327" r="3.70653" stroke="#2F2E40"/>
<circle cx="115.134" cy="59.4458" r="3.70653" stroke="#2F2E40"/>
<circle cx="115.134" cy="77.8589" r="3.70653" stroke="#2F2E40"/>
<circle cx="115.134" cy="96.272" r="3.70653" stroke="#2F2E40"/>
<circle cx="115.134" cy="114.685" r="3.70653" stroke="#2F2E40"/>
<circle cx="133.546" cy="4.20653" r="3.70653" stroke="#2F2E40"/>
<circle cx="133.546" cy="22.6196" r="3.70653" stroke="#2F2E40"/>
<circle cx="133.546" cy="41.0327" r="3.70653" stroke="#2F2E40"/>
<circle cx="133.546" cy="59.4458" r="3.70653" stroke="#2F2E40"/>
<circle cx="133.546" cy="77.8589" r="3.70653" stroke="#2F2E40"/>
<circle cx="133.546" cy="96.272" r="3.70653" stroke="#2F2E40"/>
<circle cx="133.546" cy="114.685" r="3.70653" stroke="#2F2E40"/>
<circle cx="151.958" cy="4.20653" r="3.70653" stroke="#2F2E40"/>
<circle cx="151.958" cy="22.6196" r="3.70653" stroke="#2F2E40"/>
<circle cx="151.958" cy="41.0327" r="3.70653" stroke="#2F2E40"/>
<circle cx="151.958" cy="59.4458" r="3.70653" stroke="#2F2E40"/>
<circle cx="151.958" cy="77.8589" r="3.70653" stroke="#2F2E40"/>
<circle cx="151.958" cy="96.272" r="3.70653" stroke="#2F2E40"/>
<circle cx="151.958" cy="114.685" r="3.70653" stroke="#2F2E40"/>
<circle cx="170.371" cy="4.20653" r="3.70653" stroke="#2F2E40"/>
<circle cx="170.371" cy="22.6196" r="3.70653" stroke="#2F2E40"/>
<circle cx="170.371" cy="41.0327" r="3.70653" stroke="#2F2E40"/>
<circle cx="170.371" cy="59.4458" r="3.70653" stroke="#2F2E40"/>
<circle cx="170.371" cy="77.8589" r="3.70653" stroke="#2F2E40"/>
<circle cx="170.371" cy="96.272" r="3.70653" stroke="#2F2E40"/>
<circle cx="170.371" cy="114.685" r="3.70653" stroke="#2F2E40"/>
<circle cx="188.783" cy="4.20653" r="3.70653" stroke="#2F2E40"/>
<circle cx="188.783" cy="22.6196" r="3.70653" stroke="#2F2E40"/>
<circle cx="188.783" cy="41.0327" r="3.70653" stroke="#2F2E40"/>
<circle cx="188.783" cy="59.4458" r="3.70653" stroke="#2F2E40"/>
<circle cx="188.783" cy="77.8589" r="3.70653" stroke="#2F2E40"/>
<circle cx="188.783" cy="96.272" r="3.70653" stroke="#2F2E40"/>
<circle cx="188.783" cy="114.685" r="3.70653" stroke="#2F2E40"/>
<circle cx="207.195" cy="4.20653" r="3.70653" stroke="#2F2E40"/>
<circle cx="207.195" cy="22.6196" r="3.70653" stroke="#2F2E40"/>
<circle cx="207.195" cy="41.0327" r="3.70653" stroke="#2F2E40"/>
<circle cx="207.195" cy="59.4458" r="3.70653" stroke="#2F2E40"/>
<circle cx="207.195" cy="77.8589" r="3.70653" stroke="#2F2E40"/>
<circle cx="207.195" cy="96.272" r="3.70653" stroke="#2F2E40"/>
<circle cx="207.195" cy="114.685" r="3.70653" stroke="#2F2E40"/>
</svg>
