<svg width="141" height="80" viewBox="0 0 141 80" fill="none" xmlns="http://www.w3.org/2000/svg">
<circle cx="2.89603" cy="3.11966" r="2.29251" stroke="#2F2E40"/>
<circle cx="2.89603" cy="15.343" r="2.29251" stroke="#2F2E40"/>
<circle cx="2.89603" cy="27.5667" r="2.29251" stroke="#2F2E40"/>
<circle cx="2.89603" cy="39.7903" r="2.29251" stroke="#2F2E40"/>
<circle cx="2.89603" cy="52.0139" r="2.29251" stroke="#2F2E40"/>
<circle cx="2.89603" cy="64.2373" r="2.29251" stroke="#2F2E40"/>
<circle cx="2.89603" cy="76.4607" r="2.29251" stroke="#2F2E40"/>
<circle cx="15.1187" cy="3.11966" r="2.29251" stroke="#2F2E40"/>
<circle cx="15.1187" cy="15.343" r="2.29251" stroke="#2F2E40"/>
<circle cx="15.1187" cy="27.5669" r="2.29251" stroke="#2F2E40"/>
<circle cx="15.1187" cy="39.7903" r="2.29251" stroke="#2F2E40"/>
<circle cx="15.1187" cy="52.0139" r="2.29251" stroke="#2F2E40"/>
<circle cx="15.1187" cy="64.2373" r="2.29251" stroke="#2F2E40"/>
<circle cx="15.1187" cy="76.4607" r="2.29251" stroke="#2F2E40"/>
<circle cx="27.3413" cy="3.11966" r="2.29251" stroke="#2F2E40"/>
<circle cx="27.3413" cy="15.343" r="2.29251" stroke="#2F2E40"/>
<circle cx="27.3413" cy="27.5667" r="2.29251" stroke="#2F2E40"/>
<circle cx="27.3413" cy="39.7903" r="2.29251" stroke="#2F2E40"/>
<circle cx="27.3413" cy="52.0139" r="2.29251" stroke="#2F2E40"/>
<circle cx="27.3413" cy="64.2373" r="2.29251" stroke="#2F2E40"/>
<circle cx="27.3413" cy="76.4607" r="2.29251" stroke="#2F2E40"/>
<circle cx="39.565" cy="3.11966" r="2.29251" stroke="#2F2E40"/>
<circle cx="39.565" cy="15.343" r="2.29251" stroke="#2F2E40"/>
<circle cx="39.565" cy="27.5669" r="2.29251" stroke="#2F2E40"/>
<circle cx="39.565" cy="39.7903" r="2.29251" stroke="#2F2E40"/>
<circle cx="39.565" cy="52.0139" r="2.29251" stroke="#2F2E40"/>
<circle cx="39.565" cy="64.2373" r="2.29251" stroke="#2F2E40"/>
<circle cx="39.565" cy="76.4607" r="2.29251" stroke="#2F2E40"/>
<circle cx="51.7867" cy="3.11966" r="2.29251" stroke="#2F2E40"/>
<circle cx="51.7867" cy="15.343" r="2.29251" stroke="#2F2E40"/>
<circle cx="51.7867" cy="27.5669" r="2.29251" stroke="#2F2E40"/>
<circle cx="51.7867" cy="39.7903" r="2.29251" stroke="#2F2E40"/>
<circle cx="51.7867" cy="52.0139" r="2.29251" stroke="#2F2E40"/>
<circle cx="51.7867" cy="64.2373" r="2.29251" stroke="#2F2E40"/>
<circle cx="51.7867" cy="76.4607" r="2.29251" stroke="#2F2E40"/>
<circle cx="64.0103" cy="3.11966" r="2.29251" stroke="#2F2E40"/>
<circle cx="64.0103" cy="15.343" r="2.29251" stroke="#2F2E40"/>
<circle cx="64.0103" cy="27.5667" r="2.29251" stroke="#2F2E40"/>
<circle cx="64.0103" cy="39.7903" r="2.29251" stroke="#2F2E40"/>
<circle cx="64.0103" cy="52.0139" r="2.29251" stroke="#2F2E40"/>
<circle cx="64.0103" cy="64.2373" r="2.29251" stroke="#2F2E40"/>
<circle cx="64.0103" cy="76.4607" r="2.29251" stroke="#2F2E40"/>
<circle cx="76.2339" cy="3.11966" r="2.29251" stroke="#2F2E40"/>
<circle cx="76.2339" cy="15.343" r="2.29251" stroke="#2F2E40"/>
<circle cx="76.2339" cy="27.5669" r="2.29251" stroke="#2F2E40"/>
<circle cx="76.2339" cy="39.7903" r="2.29251" stroke="#2F2E40"/>
<circle cx="76.2339" cy="52.0139" r="2.29251" stroke="#2F2E40"/>
<circle cx="76.2339" cy="64.2373" r="2.29251" stroke="#2F2E40"/>
<circle cx="76.2339" cy="76.4607" r="2.29251" stroke="#2F2E40"/>
<circle cx="88.4556" cy="3.11966" r="2.29251" stroke="#2F2E40"/>
<circle cx="88.4556" cy="15.343" r="2.29251" stroke="#2F2E40"/>
<circle cx="88.4556" cy="27.5669" r="2.29251" stroke="#2F2E40"/>
<circle cx="88.4556" cy="39.7903" r="2.29251" stroke="#2F2E40"/>
<circle cx="88.4556" cy="52.0139" r="2.29251" stroke="#2F2E40"/>
<circle cx="88.4556" cy="64.2373" r="2.29251" stroke="#2F2E40"/>
<circle cx="88.4556" cy="76.4607" r="2.29251" stroke="#2F2E40"/>
<circle cx="100.679" cy="3.11966" r="2.29251" stroke="#2F2E40"/>
<circle cx="100.679" cy="15.343" r="2.29251" stroke="#2F2E40"/>
<circle cx="100.679" cy="27.5667" r="2.29251" stroke="#2F2E40"/>
<circle cx="100.679" cy="39.7903" r="2.29251" stroke="#2F2E40"/>
<circle cx="100.679" cy="52.0139" r="2.29251" stroke="#2F2E40"/>
<circle cx="100.679" cy="64.2373" r="2.29251" stroke="#2F2E40"/>
<circle cx="100.679" cy="76.4607" r="2.29251" stroke="#2F2E40"/>
<circle cx="112.902" cy="3.11966" r="2.29251" stroke="#2F2E40"/>
<circle cx="112.902" cy="15.343" r="2.29251" stroke="#2F2E40"/>
<circle cx="112.902" cy="27.5669" r="2.29251" stroke="#2F2E40"/>
<circle cx="112.902" cy="39.7903" r="2.29251" stroke="#2F2E40"/>
<circle cx="112.902" cy="52.0139" r="2.29251" stroke="#2F2E40"/>
<circle cx="112.902" cy="64.2373" r="2.29251" stroke="#2F2E40"/>
<circle cx="112.902" cy="76.4607" r="2.29251" stroke="#2F2E40"/>
<circle cx="125.125" cy="3.11966" r="2.29251" stroke="#2F2E40"/>
<circle cx="125.125" cy="15.343" r="2.29251" stroke="#2F2E40"/>
<circle cx="125.125" cy="27.5667" r="2.29251" stroke="#2F2E40"/>
<circle cx="125.125" cy="39.7903" r="2.29251" stroke="#2F2E40"/>
<circle cx="125.125" cy="52.0139" r="2.29251" stroke="#2F2E40"/>
<circle cx="125.125" cy="64.2373" r="2.29251" stroke="#2F2E40"/>
<circle cx="125.125" cy="76.4607" r="2.29251" stroke="#2F2E40"/>
<circle cx="137.347" cy="3.11966" r="2.29251" stroke="#2F2E40"/>
<circle cx="137.347" cy="15.343" r="2.29251" stroke="#2F2E40"/>
<circle cx="137.347" cy="27.5669" r="2.29251" stroke="#2F2E40"/>
<circle cx="137.347" cy="39.7903" r="2.29251" stroke="#2F2E40"/>
<circle cx="137.347" cy="52.0139" r="2.29251" stroke="#2F2E40"/>
<circle cx="137.347" cy="64.2373" r="2.29251" stroke="#2F2E40"/>
<circle cx="137.347" cy="76.4607" r="2.29251" stroke="#2F2E40"/>
</svg>
