<svg width="63" height="62" viewBox="0 0 63 62" fill="none" xmlns="http://www.w3.org/2000/svg">
<rect x="1.74219" y="0.826172" width="60.3676" height="60.3676" rx="30.1838" fill="#2F2E40" stroke="url(#paint0_linear_563_1414)" stroke-width="1.5"/>
<path d="M31.744 30.245C32.596 30.245 33.232 30.053 33.652 29.669C34.084 29.273 34.3 28.769 34.3 28.157V28.031C34.3 27.371 34.09 26.879 33.67 26.555C33.262 26.219 32.722 26.051 32.05 26.051C31.402 26.051 30.874 26.195 30.466 26.483C30.058 26.759 29.7219 27.137 29.4579 27.617L28.342 26.753C28.4979 26.501 28.6839 26.255 28.9 26.015C29.128 25.763 29.392 25.541 29.6919 25.349C29.992 25.157 30.34 25.001 30.736 24.881C31.132 24.761 31.582 24.701 32.0859 24.701C32.6139 24.701 33.1119 24.773 33.58 24.917C34.048 25.049 34.45 25.253 34.786 25.529C35.134 25.793 35.404 26.123 35.596 26.519C35.8 26.915 35.902 27.365 35.902 27.869C35.902 28.277 35.836 28.643 35.704 28.967C35.584 29.291 35.416 29.573 35.2 29.813C34.984 30.053 34.726 30.257 34.426 30.425C34.138 30.593 33.826 30.719 33.49 30.803V30.875C33.826 30.947 34.15 31.067 34.462 31.235C34.786 31.391 35.068 31.601 35.308 31.865C35.56 32.117 35.758 32.429 35.902 32.801C36.0579 33.161 36.1359 33.575 36.1359 34.043C36.1359 34.583 36.034 35.081 35.83 35.537C35.626 35.981 35.338 36.365 34.966 36.689C34.594 37.001 34.144 37.247 33.616 37.427C33.088 37.607 32.506 37.697 31.87 37.697C31.33 37.697 30.85 37.637 30.43 37.517C30.01 37.397 29.638 37.235 29.3139 37.031C28.99 36.827 28.702 36.599 28.4499 36.347C28.2099 36.095 27.9939 35.831 27.8019 35.555L28.936 34.691C29.092 34.943 29.26 35.171 29.4399 35.375C29.6319 35.579 29.842 35.753 30.07 35.897C30.298 36.041 30.556 36.155 30.844 36.239C31.132 36.311 31.468 36.347 31.852 36.347C32.74 36.347 33.412 36.149 33.868 35.753C34.324 35.345 34.552 34.769 34.552 34.025V33.881C34.552 33.137 34.324 32.567 33.868 32.171C33.412 31.763 32.74 31.559 31.852 31.559H30.3759V30.245H31.744Z" fill="white"/>
<defs>
<linearGradient id="paint0_linear_563_1414" x1="0.992188" y1="0.0761719" x2="70.3616" y2="10.1172" gradientUnits="userSpaceOnUse">
<stop stop-color="#FF6685"/>
<stop offset="1" stop-color="#FFCC00"/>
</linearGradient>
</defs>
</svg>
