<svg width="62" height="63" viewBox="0 0 62 63" fill="none" xmlns="http://www.w3.org/2000/svg">
<rect x="0.763672" y="1.72754" width="60.3676" height="60.3676" rx="30.1838" fill="#2F2E40" stroke="url(#paint0_linear_563_1426)" stroke-width="1.5"/>
<path d="M35.6614 38.3824H27.4174V36.8344L31.5214 33.0544C32.1094 32.5144 32.6014 31.9444 32.9974 31.3444C33.3934 30.7324 33.5914 30.1204 33.5914 29.5084V29.2924C33.5914 28.5964 33.3994 28.0324 33.0154 27.6004C32.6314 27.1684 32.0494 26.9524 31.2694 26.9524C30.8854 26.9524 30.5494 27.0064 30.2614 27.1144C29.9734 27.2224 29.7214 27.3724 29.5054 27.5644C29.3014 27.7564 29.1274 27.9844 28.9834 28.2484C28.8514 28.5004 28.7434 28.7764 28.6594 29.0764L27.3094 28.5544C27.4294 28.1824 27.5914 27.8224 27.7954 27.4744C28.0114 27.1144 28.2754 26.7964 28.5874 26.5204C28.9114 26.2444 29.2954 26.0224 29.7394 25.8544C30.1954 25.6864 30.7294 25.6024 31.3414 25.6024C31.9534 25.6024 32.4994 25.6924 32.9794 25.8724C33.4594 26.0524 33.8614 26.3044 34.1854 26.6284C34.5094 26.9524 34.7554 27.3364 34.9234 27.7804C35.1034 28.2244 35.1934 28.7164 35.1934 29.2564C35.1934 29.7484 35.1214 30.2044 34.9774 30.6244C34.8454 31.0444 34.6594 31.4464 34.4194 31.8304C34.1794 32.2024 33.8854 32.5684 33.5374 32.9284C33.2014 33.2884 32.8354 33.6484 32.4394 34.0084L29.0554 37.0504H35.6614V38.3824Z" fill="white"/>
<defs>
<linearGradient id="paint0_linear_563_1426" x1="0.0136719" y1="0.977539" x2="69.383" y2="11.0186" gradientUnits="userSpaceOnUse">
<stop stop-color="#FF6685"/>
<stop offset="1" stop-color="#FFCC00"/>
</linearGradient>
</defs>
</svg>
