<svg width="33" height="33" viewBox="0 0 33 33" fill="none" xmlns="http://www.w3.org/2000/svg">
<path d="M16.7832 8.48828H30.7832V10.4883H16.7832V8.48828ZM16.7832 22.4883H30.7832V24.4883H16.7832V22.4883ZM10.7832 14.4883H4.7832C4.25293 14.4878 3.74453 14.2769 3.36957 13.9019C2.99462 13.527 2.78373 13.0186 2.7832 12.4883V6.48828C2.78373 5.95801 2.99462 5.44961 3.36957 5.07465C3.74453 4.69969 4.25293 4.48881 4.7832 4.48828H10.7832C11.3135 4.48881 11.8219 4.69969 12.1968 5.07465C12.5718 5.44961 12.7827 5.95801 12.7832 6.48828V12.4883C12.7827 13.0186 12.5718 13.527 12.1968 13.9019C11.8219 14.2769 11.3135 14.4878 10.7832 14.4883ZM4.7832 6.48828V12.4883H10.7842L10.7832 6.48828H4.7832ZM10.7832 28.4883H4.7832C4.25293 28.4878 3.74453 28.2769 3.36957 27.9019C2.99462 27.527 2.78373 27.0186 2.7832 26.4883V20.4883C2.78373 19.958 2.99462 19.4496 3.36957 19.0747C3.74453 18.6997 4.25293 18.4888 4.7832 18.4883H10.7832C11.3135 18.4888 11.8219 18.6997 12.1968 19.0747C12.5718 19.4496 12.7827 19.958 12.7832 20.4883V26.4883C12.7827 27.0186 12.5718 27.527 12.1968 27.9019C11.8219 28.2769 11.3135 28.4878 10.7832 28.4883ZM4.7832 20.4883V26.4883H10.7842L10.7832 20.4883H4.7832Z" fill="black"/>
</svg>
