<svg width="25" height="25" viewBox="0 0 25 25" fill="none" xmlns="http://www.w3.org/2000/svg">
<path d="M12.7598 13.4688C14.4166 13.4688 15.7598 12.1256 15.7598 10.4688C15.7598 8.8119 14.4166 7.46875 12.7598 7.46875C11.1029 7.46875 9.75977 8.8119 9.75977 10.4688C9.75977 12.1256 11.1029 13.4688 12.7598 13.4688Z" stroke="black" stroke-width="2" stroke-linecap="round" stroke-linejoin="round"/>
<path d="M12.7598 2.46875C10.638 2.46875 8.6032 3.3116 7.10291 4.8119C5.60262 6.31219 4.75977 8.34702 4.75977 10.4688C4.75977 12.3607 5.16177 13.5987 6.25977 14.9688L12.7598 22.4688L19.2598 14.9688C20.3578 13.5987 20.7598 12.3607 20.7598 10.4688C20.7598 8.34702 19.9169 6.31219 18.4166 4.8119C16.9163 3.3116 14.8815 2.46875 12.7598 2.46875V2.46875Z" stroke="black" stroke-width="2" stroke-linecap="round" stroke-linejoin="round"/>
</svg>
