<svg width="23" height="21" viewBox="0 0 23 21" fill="none" xmlns="http://www.w3.org/2000/svg">
<path d="M5.53125 9.63379H13.5312V11.6338H5.53125V14.6338L0.53125 10.6338L5.53125 6.63379V9.63379ZM4.53125 16.6338H7.23925C8.39394 17.6521 9.81794 18.3156 11.3404 18.5447C12.8628 18.7738 14.419 18.5587 15.8223 17.9253C17.2255 17.2919 18.4161 16.267 19.2513 14.9736C20.0865 13.6803 20.5308 12.1734 20.5308 10.6338C20.5308 9.09421 20.0865 7.58733 19.2513 6.29398C18.4161 5.00062 17.2255 3.97573 15.8223 3.34229C14.419 2.70885 12.8628 2.49376 11.3404 2.72285C9.81794 2.95193 8.39394 3.61546 7.23925 4.63379H4.53125C5.46191 3.39097 6.66958 2.3823 8.05832 1.68793C9.44706 0.993564 10.9786 0.632625 12.5312 0.633792C18.0542 0.633792 22.5312 5.11079 22.5312 10.6338C22.5312 16.1568 18.0542 20.6338 12.5312 20.6338C10.9786 20.635 9.44706 20.274 8.05832 19.5796C6.66958 18.8853 5.46191 17.8766 4.53125 16.6338Z" fill="#2F2E40"/>
</svg>
