<svg width="64" height="63" viewBox="0 0 64 63" fill="none" xmlns="http://www.w3.org/2000/svg">
<rect x="0.616699" y="0.0605469" width="62.8408" height="62.8408" rx="10" fill="#F7F4EF"/>
<path d="M26.8237 35.2236C26.5667 35.2236 26.3936 35.2488 26.3042 35.2739V36.9189C26.4103 36.9441 26.543 36.9511 26.7259 36.9511C27.3948 36.9511 27.8068 36.6131 27.8068 36.042C27.8068 35.5309 27.4521 35.2236 26.8237 35.2236ZM31.6931 35.2404C31.4139 35.2404 31.2323 35.2655 31.1248 35.2907V38.9354C31.2323 38.9606 31.4055 38.9606 31.5619 38.9606C32.7028 38.9689 33.4457 38.3405 33.4457 37.0111C33.4541 35.852 32.7768 35.2404 31.6931 35.2404Z" fill="#FF6685"/>
<path d="M34.8303 17.5166H23.6586C22.9179 17.5166 22.2075 17.8109 21.6838 18.3346C21.16 18.8584 20.8657 19.5688 20.8657 20.3095V42.6529C20.8657 43.3936 21.16 44.104 21.6838 44.6278C22.2075 45.1516 22.9179 45.4458 23.6586 45.4458H40.4162C41.1569 45.4458 41.8673 45.1516 42.3911 44.6278C42.9149 44.104 43.2091 43.3936 43.2091 42.6529V25.8954L34.8303 17.5166ZM28.5435 37.3324C28.112 37.7374 27.4752 37.9189 26.7337 37.9189C26.5899 37.9205 26.4462 37.9121 26.3035 37.8938V39.8851H25.0551V34.3887C25.6185 34.3046 26.1878 34.2663 26.7574 34.2741C27.5352 34.2741 28.0882 34.4222 28.4611 34.7196C28.8158 35.0017 29.056 35.4639 29.056 36.0085C29.0546 36.556 28.873 37.0182 28.5435 37.3324ZM33.8598 39.2246C33.2733 39.712 32.3809 39.9438 31.2903 39.9438C30.6368 39.9438 30.1745 39.9019 29.8603 39.86V34.39C30.4239 34.3078 30.9931 34.269 31.5626 34.2741C32.6197 34.2741 33.3068 34.4641 33.843 34.869C34.4226 35.2991 34.7857 35.9848 34.7857 36.9693C34.7857 38.0348 34.396 38.7707 33.8598 39.2246ZM39.0197 35.3494H36.8803V36.6216H38.8801V37.6466H36.8803V39.8865H35.6151V34.316H39.0197V35.3494ZM34.8303 27.2918H33.4339V20.3095L40.4162 27.2918H34.8303Z" fill="#FF6685"/>
</svg>
