<svg width="25" height="25" viewBox="0 0 25 25" fill="none" xmlns="http://www.w3.org/2000/svg">
<path d="M10.7598 18.9492C12.5347 18.9489 14.2586 18.3546 15.6568 17.2612L20.0528 21.6572L21.4668 20.2432L17.0708 15.8472C18.1648 14.4489 18.7593 12.7247 18.7598 10.9492C18.7598 6.53822 15.1708 2.94922 10.7598 2.94922C6.34877 2.94922 2.75977 6.53822 2.75977 10.9492C2.75977 15.3602 6.34877 18.9492 10.7598 18.9492ZM10.7598 4.94922C14.0688 4.94922 16.7598 7.64022 16.7598 10.9492C16.7598 14.2582 14.0688 16.9492 10.7598 16.9492C7.45077 16.9492 4.75977 14.2582 4.75977 10.9492C4.75977 7.64022 7.45077 4.94922 10.7598 4.94922Z" fill="black"/>
<path d="M12.1716 9.53531C12.5506 9.91531 12.7596 10.4173 12.7596 10.9493H14.7596C14.7605 10.4237 14.6572 9.9032 14.4557 9.41779C14.2542 8.93238 13.9584 8.49173 13.5856 8.1213C12.0716 6.6093 9.44659 6.6093 7.93359 8.1213L9.34559 9.53731C10.1056 8.77931 11.4156 8.78131 12.1716 9.53531Z" fill="black"/>
</svg>
