<svg width="134" height="133" viewBox="0 0 134 133" fill="none" xmlns="http://www.w3.org/2000/svg">
<path d="M67.001 0.620117L76.9465 13.4229L90.8454 5.07741L95.4944 20.6084L111.469 17.8473L110.194 34.009L126.088 37.2052L119.06 51.8148L132.726 60.5366L120.896 71.621L130.488 84.6906L115.452 90.7528L119.676 106.405L103.465 106.626L101.749 122.747L86.5534 117.098L79.1297 131.51L67.001 120.753L54.8723 131.51L47.4486 117.098L32.2529 122.747L30.5368 106.626L14.3264 106.405L18.5497 90.7528L3.51391 84.6906L13.1063 71.621L1.27571 60.5366L14.9416 51.8148L7.91408 37.2052L23.8078 34.009L22.5325 17.8473L38.5075 20.6084L43.1566 5.07741L57.0554 13.4229L67.001 0.620117Z" fill="#FF6685"/>
<g clip-path="url(#clip0_40_1697)">
<path d="M59.723 83.1118L41.9794 65.3852C41.7007 65.0597 41.555 64.6411 41.5716 64.213C41.5881 63.7848 41.7656 63.3787 42.0686 63.0757C42.3716 62.7727 42.7777 62.5952 43.2059 62.5787C43.634 62.5622 44.0526 62.7078 44.3781 62.9865L59.689 78.2974L89.6133 48.4071C89.9387 48.1284 90.3573 47.9828 90.7855 47.9993C91.2136 48.0159 91.6198 48.1933 91.9228 48.4963C92.2257 48.7993 92.4032 49.2054 92.4198 49.6336C92.4363 50.0617 92.2907 50.4804 92.012 50.8058L59.723 83.1118Z" fill="white"/>
</g>
<defs>
<clipPath id="clip0_40_1697">
<rect width="61.2436" height="61.2436" fill="white" transform="translate(36.3828 36.0054)"/>
</clipPath>
</defs>
</svg>
