<svg width="136" height="136" viewBox="0 0 136 136" fill="none" xmlns="http://www.w3.org/2000/svg">
<path d="M67.9358 0.550781L78.0894 13.6215L92.2791 5.10134L97.0254 20.9573L113.335 18.1384L112.033 34.6383L128.259 37.9013L121.084 52.8166L135.036 61.7209L122.958 73.0373L132.751 86.3803L117.401 92.5693L121.712 108.549L105.163 108.775L103.411 125.233L87.8973 119.465L80.3182 134.179L67.9358 123.197L55.5533 134.179L47.9742 119.465L32.4606 125.233L30.7086 108.775L14.159 108.549L18.4707 92.5693L3.12034 86.3803L12.9134 73.0373L0.83532 61.7209L14.7871 52.8166L7.61258 37.9013L23.8389 34.6383L22.5368 18.1384L38.8461 20.9573L43.5924 5.10134L57.7821 13.6215L67.9358 0.550781Z" fill="#FFCC00"/>
<path d="M65.5319 89.5834V84.7738H84.7704V67.6997C84.7704 65.375 84.3295 63.1906 83.4477 61.1466C82.566 59.1025 81.3636 57.3189 79.8405 55.7959C78.3175 54.2728 76.5339 53.0704 74.4898 52.1887C72.4458 51.3069 70.2614 50.866 67.9367 50.866C65.6121 50.866 63.4277 51.3069 61.3836 52.1887C59.3396 53.0704 57.556 54.2728 56.0329 55.7959C54.5099 57.3189 53.3075 59.1025 52.4257 61.1466C51.544 63.1906 51.1031 65.375 51.1031 67.6997V81.8279H43.8887V68.4812H46.2935L46.4738 65.4151C46.8346 62.4892 47.6666 59.844 48.97 57.4792C50.2718 55.1145 51.8951 53.1105 53.8398 51.4672C55.7828 49.8239 57.9672 48.551 60.3929 47.6484C62.8169 46.7474 65.3315 46.2969 67.9367 46.2969C70.582 46.2969 73.1175 46.7474 75.5431 47.6484C77.9672 48.551 80.1411 49.8335 82.065 51.4961C83.9888 53.1602 85.6024 55.1642 86.9059 57.5081C88.2077 59.8536 89.0389 62.4692 89.3996 65.355L89.58 68.4812H91.9848V81.8279H89.58V89.5834H65.5319ZM60.7223 72.7497C60.041 72.7497 59.4702 72.5189 59.0101 72.0572C58.5484 71.597 58.3175 71.0263 58.3175 70.3449C58.3175 69.6636 58.5484 69.092 59.0101 68.6303C59.4702 68.1702 60.041 67.9401 60.7223 67.9401C61.4037 67.9401 61.9752 68.1702 62.4369 68.6303C62.8971 69.092 63.1271 69.6636 63.1271 70.3449C63.1271 71.0263 62.8971 71.597 62.4369 72.0572C61.9752 72.5189 61.4037 72.7497 60.7223 72.7497ZM75.1512 72.7497C74.4698 72.7497 73.8991 72.5189 73.4389 72.0572C72.9772 71.597 72.7464 71.0263 72.7464 70.3449C72.7464 69.6636 72.9772 69.092 73.4389 68.6303C73.8991 68.1702 74.4698 67.9401 75.1512 67.9401C75.8325 67.9401 76.4041 68.1702 76.8658 68.6303C77.3259 69.092 77.556 69.6636 77.556 70.3449C77.556 71.0263 77.3259 71.597 76.8658 72.0572C76.4041 72.5189 75.8325 72.7497 75.1512 72.7497ZM53.568 69.0223C53.4077 66.6576 53.7388 64.5133 54.5612 62.5894C55.382 60.6656 56.4834 59.0319 57.8654 57.6884C59.249 56.3466 60.8426 55.3149 62.6462 54.5935C64.4498 53.872 66.2534 53.5113 68.057 53.5113C71.7043 53.5113 74.861 54.664 77.5271 56.9694C80.1916 59.2732 81.8045 62.1486 82.3656 65.5954C78.598 65.5554 75.1912 64.5429 72.1451 62.5582C69.0991 60.575 66.7945 58.0003 65.2313 54.8339C64.59 58.0804 63.2377 60.9558 61.1744 63.46C59.1095 65.9658 56.574 67.8199 53.568 69.0223Z" fill="black"/>
</svg>
