<svg width="73" height="73" viewBox="0 0 73 73" fill="none" xmlns="http://www.w3.org/2000/svg">
<rect x="0.0927734" y="0.571289" width="72.1439" height="72.1439" rx="10" fill="url(#paint0_linear_401_1057)"/>
<path d="M20.415 50.6433C20.415 52.5736 21.9848 54.1433 23.915 54.1433H48.415C50.3453 54.1433 51.915 52.5736 51.915 50.6433V24.3933C51.915 22.4631 50.3453 20.8933 48.415 20.8933H44.915C44.915 20.4292 44.7307 19.9841 44.4025 19.6559C44.0743 19.3277 43.6292 19.1433 43.165 19.1433H29.165C28.7009 19.1433 28.2558 19.3277 27.9276 19.6559C27.5994 19.9841 27.415 20.4292 27.415 20.8933H23.915C21.9848 20.8933 20.415 22.4631 20.415 24.3933V50.6433ZM23.915 24.3933H27.415V27.8933H44.915V24.3933H48.415V50.6433H23.915V24.3933Z" fill="white"/>
<path d="M40.1762 33.6597L36.1652 37.6707L32.1542 33.6597L29.6797 36.1342L33.6907 40.1452L29.6797 44.1562L32.1542 46.6307L36.1652 42.6197L40.1762 46.6307L42.6507 44.1562L38.6397 40.1452L42.6507 36.1342L40.1762 33.6597Z" fill="white"/>
<defs>
<linearGradient id="paint0_linear_401_1057" x1="36.1647" y1="0.571289" x2="36.1647" y2="72.7152" gradientUnits="userSpaceOnUse">
<stop stop-color="#FFCC00"/>
<stop offset="1" stop-color="#FF6F37"/>
</linearGradient>
</defs>
</svg>
