<svg width="73" height="73" viewBox="0 0 73 73" fill="none" xmlns="http://www.w3.org/2000/svg">
<rect x="0.120117" y="0.571289" width="72.1439" height="72.1439" rx="10" fill="url(#paint0_linear_401_1058)"/>
<path d="M52.3171 22.3101H20.0671C19.5919 22.3101 19.1362 22.4988 18.8002 22.8348C18.4642 23.1708 18.2754 23.6265 18.2754 24.1017V49.1851C18.2754 49.6602 18.4642 50.116 18.8002 50.452C19.1362 50.788 19.5919 50.9767 20.0671 50.9767H52.3171C52.7922 50.9767 53.248 50.788 53.584 50.452C53.92 50.116 54.1087 49.6602 54.1087 49.1851V24.1017C54.1087 23.6265 53.92 23.1708 53.584 22.8348C53.248 22.4988 52.7922 22.3101 52.3171 22.3101ZM50.5254 42.0184C49.0999 42.0184 47.7327 42.5847 46.7247 43.5927C45.7167 44.6007 45.1504 45.9679 45.1504 47.3934H27.2337C27.2337 45.9679 26.6674 44.6007 25.6594 43.5927C24.6514 42.5847 23.2843 42.0184 21.8587 42.0184V31.2684C23.2843 31.2684 24.6514 30.7021 25.6594 29.6941C26.6674 28.6861 27.2337 27.3189 27.2337 25.8934H45.1504C45.1504 27.3189 45.7167 28.6861 46.7247 29.6941C47.7327 30.7021 49.0999 31.2684 50.5254 31.2684V42.0184Z" fill="white"/>
<path d="M36.1921 29.4766C32.2396 29.4766 29.0254 32.6908 29.0254 36.6432C29.0254 40.5956 32.2396 43.8099 36.1921 43.8099C40.1445 43.8099 43.3587 40.5956 43.3587 36.6432C43.3587 32.6908 40.1445 29.4766 36.1921 29.4766ZM36.1921 40.2266C34.2158 40.2266 32.6087 38.6194 32.6087 36.6432C32.6087 34.667 34.2158 33.0599 36.1921 33.0599C38.1683 33.0599 39.7754 34.667 39.7754 36.6432C39.7754 38.6194 38.1683 40.2266 36.1921 40.2266Z" fill="white"/>
<defs>
<linearGradient id="paint0_linear_401_1058" x1="36.1921" y1="0.571289" x2="36.1921" y2="72.7152" gradientUnits="userSpaceOnUse">
<stop stop-color="#1BF5E6"/>
<stop offset="1" stop-color="#00F7AF"/>
</linearGradient>
</defs>
</svg>
