<svg width="73" height="73" viewBox="0 0 73 73" fill="none" xmlns="http://www.w3.org/2000/svg">
<rect x="0.120117" y="0.571289" width="72.1439" height="72.1439" rx="10" fill="url(#paint0_linear_401_1056)"/>
<path d="M23.8428 54.2969H48.3428C50.273 54.2969 51.8428 52.7271 51.8428 50.7969V24.5469C51.8428 22.6166 50.273 21.0469 48.3428 21.0469H44.8428C44.8428 20.5827 44.6584 20.1376 44.3302 19.8094C44.002 19.4812 43.5569 19.2969 43.0928 19.2969H29.0928C28.6286 19.2969 28.1835 19.4812 27.8553 19.8094C27.5271 20.1376 27.3428 20.5827 27.3428 21.0469H23.8428C21.9125 21.0469 20.3428 22.6166 20.3428 24.5469V50.7969C20.3428 52.7271 21.9125 54.2969 23.8428 54.2969ZM23.8428 24.5469H27.3428V28.0469H44.8428V24.5469H48.3428V50.7969H23.8428V24.5469Z" fill="white"/>
<path d="M34.3427 39.5723L31.205 36.4346L28.7305 38.9091L34.3427 44.5213L43.455 35.4091L40.9805 32.9346L34.3427 39.5723Z" fill="white"/>
<defs>
<linearGradient id="paint0_linear_401_1056" x1="36.1921" y1="0.571289" x2="36.1921" y2="72.7152" gradientUnits="userSpaceOnUse">
<stop stop-color="#678FF6"/>
<stop offset="1" stop-color="#1857FB"/>
</linearGradient>
</defs>
</svg>
