<svg width="673" height="666" viewBox="0 0 673 666" fill="none" xmlns="http://www.w3.org/2000/svg">
<path opacity="0.1" d="M672.912 329.166C672.907 328.739 672.865 328.015 672.876 328.218L672.547 322.931C672.329 319.416 672.105 315.905 671.896 312.411C671.678 308.916 671.464 305.431 671.245 301.957C671.006 298.478 670.938 295.072 670.225 291.437C662.85 233.786 641.189 183.573 612.829 143.063C584.225 102.703 549.459 72.7873 515.902 51.766C482.287 30.4326 449.23 19.0166 422.047 11.6726C415.162 10.0164 408.662 8.43822 402.531 6.95902C396.38 5.65173 390.474 5.10489 385.053 4.23502C379.61 3.44857 374.594 2.73502 369.985 2.06835C365.375 1.42773 361.115 1.57357 357.344 1.32357C342.229 0.698568 334.167 0.365234 334.167 0.365234H334.114C334.114 0.365234 326.078 0.766274 311.026 1.53711C307.261 1.82878 303.042 1.71419 298.443 2.39649C293.844 3.09961 288.818 3.86529 283.38 4.69862C277.969 5.61529 272.068 6.21422 265.932 7.57889C259.839 9.14662 253.375 10.8133 246.536 12.5737C219.536 20.3706 186.88 32.271 153.828 53.9017C120.839 75.271 86.8805 105.355 59.0471 145.459C31.4738 185.579 10.8338 235.844 3.56314 291.592C2.39126 298.514 2.49021 305.623 1.89127 312.707C1.67252 316.259 1.45898 319.822 1.24023 323.4L0.912109 328.775C0.912109 328.9 0.91211 328.999 0.917318 329.118C0.917318 331.238 1.05273 332.582 1.10481 334.384C1.9121 348.587 1.68814 362.796 4.48508 377.629C7.90694 407.353 17.1101 436.208 28.8917 464.588C32.1939 471.557 35.5011 478.515 38.824 485.525C42.2459 492.478 46.6417 498.937 50.5376 505.703L56.5792 515.765C58.8188 518.989 61.2095 522.114 63.5323 525.255C68.2979 531.526 72.6989 538.114 77.8136 544.14C98.1309 568.509 122.292 589.963 148.835 608.504C175.783 626.551 205.611 640.468 236.799 650.712C268.263 660.342 301.154 664.868 334.163 665.816L358.704 664.764C358.861 664.759 359.017 664.759 359.173 664.748C362.553 664.545 365.871 664.561 369.314 664.113C369.829 664.056 370.314 664.066 370.834 663.957L373.314 663.608L383.262 662.202L395.689 660.405L401.902 659.493L407.913 658.035L431.934 652.019C463.393 642.201 493.611 628.603 521.049 610.795C548.033 592.478 572.846 571.186 593.627 546.716C598.867 540.644 603.414 534.045 608.299 527.758C610.674 524.56 613.133 521.424 615.44 518.201L621.674 508.075C625.7 501.268 630.232 494.763 633.768 487.742C637.216 480.669 640.643 473.627 644.065 466.617C656.107 437.923 665.586 408.393 669.106 378.538C671.981 363.762 671.862 348.855 672.705 334.235L672.841 331.496L672.898 330.131L672.914 329.459V329.168L672.912 329.166ZM561.516 482.899L564.329 490.441C564.329 490.441 536.621 521.31 521.022 537.279C492.522 566.383 464.011 595.467 436.949 623.071C432.782 624.608 428.699 626.254 424.495 627.623L402.37 633.509L396.829 634.967L391.261 635.858L380.099 637.665L369.782 639.358C409.027 601.003 453.318 557.498 497.776 513.998C516.37 495.853 534.902 477.847 553.083 460.081C555.885 467.716 558.677 475.305 561.515 482.898L561.516 482.899ZM528.057 544.311C548.912 523.962 569.719 503.738 590.011 483.904L604.787 480.139C602.313 484.378 599.724 488.54 597.266 492.811L591.657 502.16L585.183 510.962C580.745 516.753 576.672 522.878 571.922 528.478C552.996 551.035 530.677 571.014 506.068 588.295C490.084 599.045 472.932 608.06 455.125 615.79C478.844 592.514 503.401 568.435 528.057 544.311H528.057ZM575.672 469.456C569.667 451.888 563.719 434.259 558.193 416.68C556.657 411.691 555.079 406.618 553.824 401.858C553.48 400.623 553.199 399.493 553.037 398.587L552.933 398.118L552.938 398.045C553.157 395.733 553.079 395.701 553.105 394.691V392.488L553.022 388.306C552.673 377.399 552.027 366.779 551.303 356.066C550.558 345.357 549.699 334.702 548.443 323.899C547.756 318.373 547.251 313.31 545.803 306.836L545.391 305.378C545.235 304.841 545.188 304.503 544.756 303.487C544.157 302.477 544.881 302.539 542.001 299.045C541.428 298.42 540.782 297.857 540.11 297.378C536.787 295.482 539.146 296.841 538.402 296.414L538.344 296.394L538.204 296.347L537.735 296.175L536.662 295.795L534.824 295.248C533.683 294.92 532.183 294.576 531.256 294.409C528.365 293.894 525.594 293.461 522.917 293.081C503.772 290.347 484.948 288.659 466.016 287.024L453.552 253.93L440.224 219.628C455.339 200.409 470.271 181.034 485.24 161.68L488.6 157.326L488.428 156.951L489.157 156.898L527.73 154.258L533.433 165.841L534.334 167.701L536.491 168.013L568.688 172.695L576.73 173.867L578.745 174.159L580.573 174.497L584.573 175.221L598.12 177.68L605.985 192.612L613.807 209.981C616.172 215.856 618.318 221.846 620.578 227.757C622.662 233.736 624.318 239.866 626.214 245.918C628.011 251.991 629.172 258.236 630.703 264.377C632.224 270.523 632.844 276.846 633.979 283.065C635.203 289.279 635.386 295.633 636.063 301.909C636.839 308.19 636.802 314.529 636.964 320.836C637.011 323.914 637.172 327.341 637.12 330.117L636.761 339.804C636.641 346.351 635.984 352.565 635.292 358.731C634.813 364.913 633.688 371.143 632.651 377.367C631.792 383.607 630.188 389.7 628.828 395.878C627.604 402.06 625.505 408.034 623.823 414.091C622.182 420.164 619.719 425.992 617.729 431.966C615.594 437.877 612.906 443.591 610.537 449.414C608.448 453.961 606.193 458.44 603.99 462.935L575.672 469.456ZM243.312 628.95C231.791 625.314 220.448 621.127 209.375 616.382C215.468 610.46 221.875 604.22 228.656 597.627C237.526 589.023 247.063 579.737 256.885 570.158L270.245 578.418L289.396 590.319C277.552 602.46 266.287 614.033 255.849 624.793C253.87 626.819 251.98 628.756 250.063 630.751C247.813 630.183 245.553 629.605 243.313 628.949L243.312 628.95ZM102.605 541.147C112.986 531.038 181.417 464.454 206.132 440.272C208.768 454.152 214.361 483.376 214.361 483.376C196.664 501.507 141.481 558.231 131.569 568.428C121.34 559.897 111.663 550.792 102.605 541.147H102.605ZM93.2668 531.022C88.3814 525.407 84.1887 519.262 79.6268 513.443L75.4394 507.881C85.0644 498.516 159.043 426.521 188.575 397.589L202.106 418.662C202.913 423.172 203.788 427.657 204.622 432.157C179.158 458.173 110.652 528.583 100.575 538.938C98.1323 536.303 95.5958 533.751 93.2676 531.021L93.2668 531.022ZM72.9548 504.585L67.1631 495.183C63.4235 488.85 59.1787 482.85 55.8819 476.329C54.8663 474.282 53.8663 472.214 52.8559 470.162C60.4444 462.808 68.6106 454.85 77.3252 446.359C102.935 421.542 132.929 392.219 164.976 360.829L184.612 391.427C155.273 421.406 82.8199 495.818 73.5386 505.386L72.9548 504.585ZM182.736 47.4379C190.757 43.4795 198.482 39.6723 205.913 36.0056C209.57 34.042 213.476 32.8545 217.179 31.4535C220.903 30.0889 224.554 28.7504 228.117 27.4431C231.679 26.1357 235.163 24.8597 238.564 23.6149C242.038 22.7035 245.424 21.818 248.726 20.9483C247.294 22.3597 245.867 23.7608 244.424 25.1879L236.335 27.9743L240.554 29.0055C235.903 33.6149 222.471 46.9175 220.685 48.6829C217.414 51.985 214.07 55.3965 210.747 58.7714L202.513 52.5058L226.461 40.261L225.586 38.261L198.064 48.7662L171.679 62.0787L146.591 77.8707L123.055 96.0374L101.441 116.559L81.8098 139.069L64.3458 163.381L50.7725 186.616C56.5381 174.684 62.8558 163.283 69.7152 152.589C95.2565 113.22 127.475 83.3294 159.122 62.0161C167.252 56.9953 175.039 51.9691 182.736 47.4374L182.736 47.4379ZM591.696 166.725L586.155 165.881L582.139 165.266L579.967 164.938L577.952 164.699L569.873 163.756L546.691 161.053C548.831 158.751 550.925 156.522 552.977 154.35L553.008 156.897L556.071 154.298L570.435 142.11L571.279 141.391L570.971 140.381L567.477 129.027L576.227 138.204L576.341 138.319L578.034 136.912L565.654 120.402L551.992 104.871L537.274 90.2349L521.566 76.5789L518.581 73.9956L515.066 76.8185L512.586 78.8185L512.373 78.5008C510.789 76.105 509.065 73.7664 507.414 71.4019L506.789 70.5009C504.774 65.8706 502.092 62.0842 499.164 58.579C501.992 60.4071 504.841 62.2457 507.722 64.0894C538.774 85.7401 570.216 115.787 594.998 154.912C596.081 156.803 597.185 158.735 598.268 160.641C596.17 162.579 593.982 164.594 591.695 166.725L591.696 166.725ZM486.775 151.255L486.014 151.896C482.077 143.688 477.978 135.557 473.926 127.412L482.572 120.063L489.264 114.396L492.603 111.568L496.046 108.438L518.832 87.4325L531.718 96.7294L547.384 109.594L562.182 123.495L563.177 124.527L567.499 140.235L557.593 148.177L556.02 142.63L524.146 119.344L522.578 120.682L486.775 151.255ZM254.135 524.189L252.291 527.668L253.494 531.642L257.833 546.016L246.926 538.959L235.952 477.88C231.958 456.042 228.192 434.172 223.947 412.375L223.505 410.099L222.322 408.276L181.896 346.339C184.666 327.194 187.13 307.959 189.698 288.776L190.625 281.839L189.125 280.948L218.917 267.86L294.672 308.89L352.062 356.458L328.557 414.109C316 432.192 303.265 450.234 290.437 468.057L280.624 481.417C279.676 482.672 278.598 484.058 277.64 485.287C276.879 485.714 272.681 490.537 272.681 490.537L270.353 494.443C264.629 504.417 259.426 514.219 254.135 524.188L254.135 524.189ZM22.0682 374.149C19.464 361.023 19.3859 347.091 18.4536 333.649C18.3807 332.034 18.1984 329.899 18.2141 328.737L18.3859 324.586C41.7139 301.841 67.2353 276.851 93.9433 250.679L116.022 259.721L127.126 266.679C88.8141 305.758 52.5221 342.789 22.0687 374.149L22.0682 374.149ZM65.4122 192.722L76.7559 171.003L92.3292 146.982L110.136 124.487L130.037 103.717L151.704 84.6752L175.111 67.6645L199.199 53.4245L222.016 71.5232L222.985 72.2992L224.021 71.5701L255.828 49.1687L294.729 49.9135L308.13 83.1949C275.114 104.112 242.125 125.19 209.308 146.44L208.948 146.669L208.599 147.029L181.293 174.993L180.157 176.159L178.97 196.659L141.705 179.769L139.517 178.774L137.267 179.873L106.303 194.998L102.183 197.014L103.48 201.514L113.501 236.279L114.277 238.977L84.141 227.592C77.9328 215.951 71.7504 204.294 65.4117 192.722L65.4122 192.722ZM265.399 35.0552L281.773 39.0552L282.164 38.9979C285.872 38.4458 289.591 37.7896 293.305 37.1854C290.758 39.6438 288.175 42.1906 285.591 44.7218L255.195 45.0291L254.508 45.0343L253.987 45.4145L223.075 68.1225L220.997 66.5392C223.96 63.6277 226.955 60.685 229.851 57.8204C238.361 49.1641 246.747 40.7577 254.908 32.503L265.399 35.0552ZM307.123 33.7583C308.566 30.3886 309.951 26.9875 311.326 23.5657C312.274 23.4823 313.217 23.3886 314.17 23.3104L306.967 34.1386L307.123 33.7583ZM313.279 86.7477L314.071 86.2268L314.451 87.1435L282.53 107.893C282.087 108.325 281.665 108.752 281.222 109.185C251.31 139.387 219.764 171.971 188.097 204.43L187.998 204.529L188.019 204.029L188.936 179.919L214.212 152.982C247.129 130.711 280.124 108.67 313.28 86.7475L313.279 86.7477ZM154.226 222.574L162.142 225.97L165.564 227.434C163.929 229.1 162.294 230.772 160.668 232.439L154.226 222.574ZM123.371 209.335C121.861 210.871 120.345 212.428 118.845 213.954L115.434 202.746L139.819 190.262L141.402 190.939C136.033 196.418 130.694 201.871 125.35 207.319L123.371 209.335ZM132.236 213.137L143.668 218.043L122.761 226.804L121.74 223.434C125.209 220.017 128.735 216.564 132.235 213.137H132.236ZM137.725 207.751C142.079 203.486 146.402 199.246 150.777 194.97L181.397 208.121L183.569 209.054C183.533 209.09 183.486 209.137 183.449 209.179C183.298 209.158 183.158 209.132 183.007 209.121C178.017 208.809 172.955 208.986 167.944 208.814L137.725 207.751ZM125.225 243.262L124.418 242.783L123.783 242.543L119.204 240.809L121.283 239.981L144.923 230.491L169.449 269.325L125.225 243.262ZM165.747 240.226C168.747 237.283 171.757 234.335 174.767 231.387L183.106 234.965C190.148 237.861 197.189 240.773 204.325 243.491L207.267 244.611C207.267 244.611 194.84 258.679 185.549 268.168L184.345 268.72L165.747 240.226ZM203.7 232.564C205.71 232.408 207.726 232.252 209.757 231.929C211.169 231.762 212.585 231.512 214.012 231.226C211.606 232.408 209.205 233.59 206.799 234.778C205.778 234.028 204.731 233.309 203.7 232.564ZM437.193 27.6709C438.021 27.9938 438.829 28.3063 439.672 28.6344C443.204 29.9937 446.813 31.3896 450.501 32.8167C454.167 34.2803 458.037 35.5197 461.631 37.5407C465.381 39.4573 469.209 41.4209 473.115 43.4261C468.641 47.5616 463.959 51.9313 458.809 56.7861C448.751 66.2705 437.262 76.8275 424.991 88.6035C412.663 100.327 399.387 113.103 385.423 126.697C371.387 140.213 356.923 154.801 341.751 169.707C311.845 199.91 280.298 232.494 248.606 264.953C247.955 265.619 247.314 266.276 246.663 266.932L222.398 254.255L219.398 252.687L216.413 254.052L209.565 257.182C214.835 252.015 220.08 246.88 225.362 241.713C257.821 210.046 290.403 178.51 320.607 148.598C335.509 133.447 350.123 118.978 363.618 104.942C377.202 90.978 389.978 77.7127 401.727 65.3847C413.477 53.1087 424.039 41.6247 433.534 31.5673C434.836 30.1976 435.971 28.9788 437.195 27.6715L437.193 27.6709ZM420.636 211.444L417.756 214.903C412.662 219.96 407.526 225.048 402.277 230.215C376.532 256.204 349.564 283.98 322.36 311.908L303.625 296.84L303.005 296.34L302.401 296.027L295.818 292.585C324.974 264.173 354.036 235.97 381.167 209.101C396.079 193.95 410.662 179.481 424.178 165.445C436.266 153.033 447.667 141.21 458.276 130.07C461.709 138.289 465.13 146.518 468.641 154.715C452.573 173.579 436.485 192.418 420.636 211.445L420.636 211.444ZM465.901 80.1055L462.917 88.991L470.344 91.1785C473.995 92.2514 477.714 93.2097 481.401 94.2045C473.292 101.783 464.511 109.928 455.24 118.85C442.907 130.574 429.615 143.35 415.656 156.938C401.62 170.454 387.161 185.042 371.989 199.948C344.405 227.798 315.427 257.672 286.255 287.604L255.875 271.74C288.249 240.147 320.755 208.694 350.88 178.85C365.792 163.699 380.375 149.23 393.891 135.183C407.489 121.219 420.26 107.943 432 95.6258C443.766 83.3341 454.323 71.8658 463.817 61.8085C466.406 59.0585 468.739 56.5533 471.125 53.9959L470.786 55.3553C469.869 59.0583 469.546 62.8449 469.593 66.6886C469.619 66.6938 467.687 74.8031 465.901 80.1046L465.901 80.1055ZM491.147 83.9233C489.1 82.7306 487.032 81.6107 484.969 80.4493C486.636 77.8086 488.35 75.1837 490.105 72.5847L490.444 71.4024C495.022 72.3868 499.912 73.0379 505.531 72.7514C506 74.4962 506.443 76.2358 506.912 77.9806C501.657 79.9598 496.37 81.8972 491.146 83.9232L491.147 83.9233ZM273.547 529.55C277.953 520.857 282.411 512.123 286.959 503.785L288.167 501.67C288.167 501.67 293.896 494.977 295.693 492.54L305.474 478.696C316.458 462.857 327.187 446.946 337.933 431.018C350.797 418.414 363.73 405.727 376.735 392.997C405.855 364.585 434.99 336.346 462.511 309.19L488.657 311.831C492.777 312.3 496.902 312.711 501.037 313.128C498.396 315.743 495.787 318.331 493.1 320.977C463.182 351.18 431.641 383.764 399.96 416.237C357.496 459.644 315.048 502.873 277.372 541.414L273.547 529.55ZM369.708 385.963C363.203 392.609 356.729 399.208 350.265 405.833L369.344 356.999L371.531 351.406L366.964 347.723L364.208 345.504C389.25 321.103 414.083 296.958 437.588 273.728L447.661 301.4L448.932 304.88C423.162 331.025 396.52 358.478 369.708 385.962L369.708 385.963ZM432.563 260.474C407.839 285.438 382 312.047 355.869 338.843L330.552 318.483C358.203 291.551 385.688 264.847 411.432 239.358C414.875 235.863 418.27 232.441 421.656 229.014L432.698 260.342C432.645 260.389 432.599 260.436 432.562 260.472L432.563 260.474ZM524.505 125.861L552.333 145.006C551.432 145.85 550.542 146.678 549.609 147.568C546.078 150.891 542.312 154.402 538.484 158.006L533.489 148.548L532.265 146.235L529.771 146.475L498.364 149.522L524.505 125.861ZM428.536 26.5273C418.473 36.0117 406.989 46.5686 394.733 58.3446C382.405 70.0686 369.108 82.8446 355.149 96.4326C341.119 109.949 326.665 124.537 311.513 139.443C284.153 167.069 255.415 196.689 226.483 226.375L225.816 225.823C223.581 223.948 221.285 222.485 218.983 221.073C216.67 219.745 214.352 218.417 211.993 217.37C207.311 215.063 202.535 213.355 197.717 211.896C196.925 211.651 196.128 211.485 195.326 211.276C227.722 179.672 260.248 148.194 290.394 118.334C305.306 103.183 319.889 88.7137 333.405 74.6777C338.999 68.9381 344.374 63.3755 349.665 57.891C354.056 59.6098 358.504 61.1514 363.092 61.9847L370.738 63.3754L374.764 57.6566C377.071 54.3962 378.915 50.8077 380.836 47.2869C382.409 44.3442 384.086 41.4691 385.774 38.6202C390.612 36.7087 395.472 34.8338 400.269 32.8285L423.717 23.0785C425.581 23.5993 427.42 24.1149 429.342 24.6514C429.618 24.7556 429.915 24.8754 430.191 24.9795C429.628 25.5003 429.102 25.9847 428.534 26.5264L428.536 26.5273ZM373.052 26.1991L372.76 26.5325C370.125 29.5429 367.385 32.4699 364.578 35.3502C363.547 36.4179 362.531 37.4857 361.5 38.5533C360.151 38.3345 358.812 38.1366 357.453 37.9856C357.213 36.7147 357 35.4544 356.734 34.1834C355.698 30.0324 354.5 25.9022 352.682 21.699C359.468 23.3136 366.266 24.746 373.051 26.199L373.052 26.1991ZM399.745 19.3554C395.521 19.0846 391.303 18.819 387.12 18.595C388.308 17.319 389.464 16.0794 390.636 14.8294C393.823 15.3242 397.063 15.8607 400.438 16.6419C404.625 17.7826 409.011 18.9961 413.547 20.2409L399.745 19.3554ZM375.032 18.0794C367.094 18.3762 359.152 18.6158 351.204 19.1419L350.662 19.1783L350.011 20.1471C347.136 24.4231 345.188 28.7773 343.319 33.1367C341.652 37.5116 340.152 41.8971 339.079 46.3137L337.443 52.9335L338.219 53.2564C333.86 57.4752 329.423 61.7668 324.897 66.1731C320.761 70.1523 316.558 74.272 312.339 78.4335L299.443 48.1828C300.678 46.9224 301.923 45.6516 303.126 44.3964C315.146 32.0527 326.48 20.2871 337.063 9.19373C340.563 9.40207 347.151 9.79789 356.662 10.376C360.307 10.6989 364.448 10.6208 368.922 11.3344C372.422 11.9021 376.245 12.5271 380.24 13.1781C378.511 14.7822 376.787 16.4177 375.031 18.0792L375.032 18.0794ZM311.527 19.5272L311.36 19.4127C307.553 16.8763 303.751 15.4335 299.943 14.3033C296.626 13.2877 293.318 12.7669 290.016 12.4231C293.235 11.9283 296.35 11.4543 299.23 11.0116C303.704 10.3449 307.87 10.4491 311.542 10.1678C315.469 9.96472 318.865 9.79284 321.803 9.64701C318.433 12.8762 315.006 16.1678 311.527 19.5273L311.527 19.5272ZM47.7399 193.207L49.292 196.447C52.2243 202.546 55.2295 208.608 58.2347 214.671C48.4483 224.66 38.8494 234.452 29.4374 244.077C34.2395 226.266 40.4218 209.255 47.74 193.208L47.7399 193.207ZM61.9332 222.129C64.6832 227.634 67.4384 233.134 70.178 238.655L71.5895 241.499L74.7614 242.796L86.0635 247.426C62.3555 271.619 39.6515 294.801 18.7355 316.238C18.772 315.321 18.8084 314.394 18.8501 313.478C19.2824 306.749 19.022 299.983 20.0063 293.395C21.3501 281.051 23.4647 268.994 26.1209 257.218C37.7563 245.806 49.6942 234.114 61.9329 222.13L61.9332 222.129ZM22.9639 379.835C55.1826 348.565 93.6306 310.923 134.235 271.106L164.245 289.923C119.881 335.194 77.7866 378.126 44.0106 412.981C40.4584 416.626 37.021 420.163 33.6616 423.621C28.8699 409.137 25.1512 394.476 22.9638 379.835L22.9639 379.835ZM47.0839 416.065C81.1626 383.038 122.969 342.07 167.125 298.799C164.526 314.955 161.906 331.106 159.547 347.294L158.948 351.377L160.933 354.471C129.11 386.96 99.3912 417.346 74.2765 443.263C66.0995 451.664 58.4379 459.55 51.2872 466.888C49.6206 463.498 47.9591 460.102 46.2976 456.732C42.1935 447.222 38.3965 437.549 35.0372 427.784C38.9331 423.998 42.9227 420.112 47.0841 416.065L47.0839 416.065ZM215.791 490.71L224.244 534.549C214.082 544.97 204.394 554.923 195.317 564.283C184.796 575.096 175.114 585.049 166.322 594.081C164.426 592.909 162.52 591.742 160.656 590.528C151.395 584.211 142.552 577.403 133.942 570.362C144.078 560.513 198.786 507.315 215.792 490.711L215.791 490.71ZM169.14 595.841C178.031 587.184 187.807 577.658 198.4 567.371C206.926 559.111 216.088 550.199 225.499 541.027L226.723 547.376L227.618 552.043L231.509 554.434L252.16 567.241C242.899 576.741 233.925 585.981 225.592 594.569C218.639 601.715 212.076 608.449 205.862 614.84C193.217 609.256 180.92 602.959 169.138 595.84L169.14 595.841ZM292.223 587.44L285.54 566.726L279.53 548.096C318.655 509.866 362.743 466.574 406.999 423.268C439.458 391.601 472.051 360.065 502.25 330.142C507.37 324.96 512.328 319.97 517.318 314.949C518.177 315.053 519.078 315.136 519.959 315.246C521.756 315.47 523.443 315.73 525.146 315.985C525.75 319.272 526.281 323.032 526.75 326.574C527.563 332.907 528.198 339.371 528.886 345.809C527.042 347.637 525.25 349.423 523.38 351.262C493.463 381.464 461.938 414.027 430.24 446.507C381.896 495.892 333.491 545.168 292.227 587.44L292.223 587.44ZM254.712 632.008C256.123 630.633 257.498 629.299 258.936 627.893C307.785 580.554 372.447 516.961 437.269 453.52C469.045 422.509 500.915 391.634 530.603 362.274C531.426 371.264 532.207 380.285 532.733 389.124C532.733 389.124 533.42 394.259 533.332 394.603L533.363 402.124C509.582 426.321 485.134 451.493 460.488 476.754C417.103 521.109 373.712 565.296 335.415 604.478C333.951 601.515 332.509 598.489 330.988 595.525L325.342 584.504L319.212 593.63C314.603 600.499 310.004 607.384 305.556 614.375C301.066 621.344 296.535 628.271 292.223 635.38L291.66 636.297L292.915 637.156C294.139 637.979 295.415 638.703 296.686 639.443C282.555 637.844 268.514 635.448 254.717 632.01L254.712 632.008ZM326.072 628.2C323.077 628.461 320.077 628.768 317.077 629.268C313.009 630.054 309.343 630.419 305.363 631.351C302.728 631.888 300.072 632.659 297.327 633.57C302.286 629.002 307.181 624.388 312.051 619.742C315.134 616.831 318.114 613.867 321.14 610.909C322.202 614.487 323.244 618.049 324.285 621.638C324.947 623.805 325.52 625.997 326.072 628.2V628.2ZM350.941 634.731C347.905 628.065 343.879 621.82 340.717 615.221C339.905 613.585 339.098 611.966 338.301 610.33C377.853 571.685 422.613 527.737 467.525 483.783C491.087 460.789 514.618 437.945 537.337 415.663C538.113 418.023 538.904 420.361 539.701 422.705C542.592 431.096 545.571 439.408 548.571 447.705C529.54 467.164 510.202 487.065 490.748 507.008C445.275 553.481 399.775 599.794 360.207 640.314C359.222 640.361 358.228 640.387 357.264 640.471L353.66 640.689L350.941 634.731Z" fill="white"/>
</svg>
