<svg width="51" height="51" viewBox="0 0 51 51" fill="none" xmlns="http://www.w3.org/2000/svg">
<path d="M25.9984 31.2578C22.165 31.2578 21.8317 29.4661 21.8317 29.1745H17.665C17.665 31.0911 19.04 34.487 23.915 35.2578V37.5078H28.0817V35.2578C32.2484 34.5495 34.3317 31.862 34.3317 29.1745C34.3317 26.8411 33.2484 22.9245 25.9984 22.9245C21.8317 22.9245 21.8317 21.612 21.8317 20.8411C21.8317 20.0703 23.29 18.7578 25.9984 18.7578C28.7067 18.7578 28.8942 20.0911 28.915 20.8411H33.0817C33.0535 19.4219 32.5431 18.0545 31.6343 16.964C30.7256 15.8734 29.4726 15.1248 28.0817 14.8411V12.5078H23.915V14.7786C19.7484 15.4661 17.665 18.1536 17.665 20.8411C17.665 23.1745 18.7484 27.0911 25.9984 27.0911C30.165 27.0911 30.165 28.5078 30.165 29.1745C30.165 29.8411 28.8734 31.2578 25.9984 31.2578Z" fill="#2F2E40"/>
<path d="M11.415 4.17456H5.16504V8.34123H9.33171V43.7579C9.33171 44.3104 9.5512 44.8403 9.9419 45.231C10.3326 45.6217 10.8625 45.8412 11.415 45.8412H40.5817C41.1342 45.8412 41.6642 45.6217 42.0548 45.231C42.4455 44.8403 42.665 44.3104 42.665 43.7579V8.34123H46.8317V4.17456H11.415ZM38.4984 41.6746H13.4984V8.34123H38.4984V41.6746Z" fill="#2F2E40"/>
</svg>
