<svg width="31" height="30" viewBox="0 0 31 30" fill="none" xmlns="http://www.w3.org/2000/svg">
<path d="M30.718 26.4263L30.378 26.1263C29.4134 25.2669 28.5691 24.2813 27.868 23.1963C27.1022 21.6988 26.6432 20.0635 26.518 18.3863V13.4463C26.5139 12.8462 26.4604 12.2475 26.358 11.6563C24.6641 11.3081 23.1426 10.3853 22.051 9.04407C20.9594 7.70283 20.3648 6.02558 20.368 4.29629V3.66629C19.3239 3.15248 18.2021 2.8146 17.048 2.66629V1.40629C17.048 1.05222 16.9073 0.712663 16.657 0.462302C16.4066 0.211941 16.067 0.0712891 15.713 0.0712891C15.3589 0.0712891 15.0193 0.211941 14.769 0.462302C14.5186 0.712663 14.378 1.05222 14.378 1.40629V2.71629C11.7937 3.08084 9.42854 4.36803 7.71919 6.34022C6.00984 8.31241 5.0717 10.8364 5.07797 13.4463V18.3863C4.95272 20.0635 4.49375 21.6988 3.72797 23.1963C3.03885 24.2786 2.20816 25.264 1.25797 26.1263L0.917969 26.4263V29.2463H30.718V26.4263Z" fill="#DCDCDC"/>
</svg>
